<?xml version="1.0" encoding="UTF-8"?>
<svg version="1.1" xmlns="http://www.w3.org/2000/svg" width="1024" height="1024">
<path d="M0 0 C337.92 0 675.84 0 1024 0 C1024 337.92 1024 675.84 1024 1024 C686.08 1024 348.16 1024 0 1024 C0 686.08 0 348.16 0 0 Z " fill="#D53D91" transform="translate(0,0)"/>
<path d="M0 0 C337.92 0 675.84 0 1024 0 C1024 337.92 1024 675.84 1024 1024 C686.08 1024 348.16 1024 0 1024 C0 686.08 0 348.16 0 0 Z M172 189 C144.47254998 221.49193812 130.65130325 259.48795655 130.73257446 301.9158783 C130.72883039 303.78850552 130.72422588 305.66113118 130.71884382 307.53375441 C130.70669168 312.64126369 130.70686503 317.7487071 130.70923257 322.85622752 C130.70964273 328.38000203 130.69858264 333.90375597 130.68911743 339.42752075 C130.67254871 350.23601362 130.66700974 361.04448467 130.66589268 371.85298919 C130.66494014 380.64581167 130.66081959 389.438627 130.65449142 398.23144722 C130.63975027 419.14175699 130.6274405 440.05206292 130.62848854 460.9623785 C130.6285197 461.63008444 130.62855086 462.29779037 130.62858296 462.98572982 C130.62874915 466.36934625 130.62894723 469.75296267 130.62915237 473.13657909 C130.62919226 473.8084828 130.62923215 474.48038652 130.62927325 475.17265095 C130.62935413 476.53140325 130.62943772 477.89015555 130.62952404 479.24890785 C130.63074853 500.37145115 130.61575021 521.49393016 130.58837891 542.61645508 C130.55758233 566.3916193 130.5404763 590.16674754 130.54230535 613.94193655 C130.54296741 626.51359167 130.53755629 639.08517427 130.51594925 651.65681267 C130.49766497 662.3632139 130.49344924 673.06950975 130.5069681 683.77591991 C130.51346161 689.22906372 130.51374707 694.68200578 130.4962616 700.13512993 C130.23924101 731.29315279 130.23924101 731.29315279 135 762 C135.22382898 762.92901025 135.44765795 763.85802049 135.67826962 764.81518257 C143.26773355 795.71651843 159.24871072 821.16114626 181 844 C181.66515625 844.71800781 182.3303125 845.43601562 183.015625 846.17578125 C211.05122061 875.566038 253.49439426 891.38666249 293.50940895 892.367033 C304.08646698 892.57222124 314.66612914 892.53810083 325.2446059 892.50823963 C330.7940357 892.49701007 336.34342559 892.5091114 341.89285278 892.51808167 C352.72941806 892.5319341 363.56586593 892.52451812 374.40242551 892.50940608 C387.04572317 892.49245257 399.68899235 892.49576784 412.33229788 892.49950016 C435.58142515 892.50554052 458.8304859 892.48983361 482.07959343 892.46431253 C503.2574275 892.44118824 524.43519325 892.43581677 545.61303711 892.44604492 C551.04084934 892.44864741 556.46866157 892.45123256 561.89647388 892.45364285 C562.89914278 892.45408902 562.89914278 892.45408902 563.92206761 892.4545442 C581.67702339 892.46217435 599.43197434 892.45567432 617.18692797 892.44494683 C619.734199 892.44342113 622.28147004 892.44190077 624.82874107 892.44038582 C626.08175053 892.439628 627.33475999 892.43887019 628.62573943 892.43808941 C637.42216275 892.43336244 646.21857059 892.43518662 655.01499367 892.43945122 C665.74249026 892.44439508 676.46991644 892.43831673 687.19739697 892.41855692 C692.66222625 892.40873616 698.12694867 892.40352307 703.59178352 892.41144943 C708.60717628 892.41857475 713.62235471 892.41154391 718.63771947 892.3938458 C720.43879255 892.38984536 722.23988559 892.39072568 724.04095087 892.39736467 C740.16280609 892.45164376 756.25557523 890.95106477 771.75 886.25 C772.6157666 885.99395996 773.4815332 885.73791992 774.37353516 885.47412109 C782.56458619 882.97016796 790.32103402 879.77768446 798 876 C798.94649414 875.54004639 798.94649414 875.54004639 799.91210938 875.07080078 C839.47131278 855.62388351 870.08506315 819.82084528 884.62109375 778.3359375 C886.23890102 773.431066 887.53020788 768.45442362 888.75 763.4375 C888.94875732 762.62385986 889.14751465 761.81021973 889.35229492 760.97192383 C892.57132985 746.97953924 893.29368541 733.3385042 893.26069641 719.05047607 C893.2637229 717.1742857 893.26761486 715.29809656 893.27228898 713.42190957 C893.28251363 708.30474384 893.28040136 703.18764861 893.27610838 698.07047725 C893.27363104 692.53657586 893.28266781 687.00269101 893.29014587 681.46879578 C893.3028671 670.64192506 893.30468977 659.81507918 893.30234561 648.98820224 C893.30055936 640.18341875 893.30231868 631.37864277 893.30657005 622.57386017 C893.30716524 621.31858889 893.30776043 620.06331761 893.30837366 618.7700078 C893.30958547 616.21954471 893.3107996 613.66908161 893.31201603 611.11861852 C893.3197978 594.00526536 893.32372624 576.89191502 893.31969929 559.77856064 C893.31954291 559.11022861 893.31938654 558.44189658 893.31922542 557.75331207 C893.31841972 554.36645583 893.31757395 550.9795996 893.31671212 547.59274337 C893.31654103 546.92018367 893.31636994 546.24762396 893.31619367 545.55468367 C893.31584701 544.19460669 893.31549848 542.83452972 893.31514808 541.47445275 C893.30979261 520.31840123 893.3177196 499.1623914 893.33618164 478.00634766 C893.35693241 454.2001019 893.3675874 430.39387836 893.36360615 406.58762097 C893.36169708 393.99657805 893.36415299 381.40557311 893.37832069 368.81453705 C893.39026081 358.09519561 893.39160994 347.37591553 893.37953053 336.65657321 C893.37366023 331.19395647 893.372491 325.73145183 893.38453293 320.2688427 C893.39545397 315.25619669 893.39221511 310.24375551 893.37827124 305.23111883 C893.37564133 303.42976066 893.37793638 301.62838611 893.38600711 299.8270441 C893.45137859 284.13157125 891.84818854 268.66786869 887.375 253.5625 C887.12411621 252.70325928 886.87323242 251.84401855 886.61474609 250.95874023 C878.78626794 225.33040594 864.50352466 202.27051014 846 183 C845.16082031 182.10925781 844.32164062 181.21851563 843.45703125 180.30078125 C814.98467316 150.84236747 773.94125702 132.62189434 732.93307495 131.90517187 C728.09477236 131.85305752 723.25649157 131.85686784 718.41796875 131.85955811 C716.54508116 131.85697033 714.67219411 131.85395602 712.79930782 131.8505547 C707.67731343 131.84253007 702.55533309 131.84069768 697.43333316 131.83995724 C691.89936371 131.83809876 686.36540143 131.83054753 680.83143616 131.82382202 C668.74234745 131.81027096 656.65326206 131.80421916 644.56416702 131.79981136 C637.00858745 131.79704375 629.45300914 131.79280549 621.89743042 131.78830719 C600.95721017 131.77611927 580.01699061 131.76578335 559.07676697 131.7624321 C557.7244332 131.76221047 556.37209944 131.76198869 555.01976568 131.76176675 C553.66429603 131.76154611 552.30882639 131.76132563 550.95335674 131.7611053 C548.23436673 131.76066276 545.51537673 131.76021564 542.79638672 131.75976562 C541.78517131 131.75960154 541.78517131 131.75960154 540.7535273 131.75943414 C518.90518088 131.75580527 497.05686768 131.73988895 475.20853397 131.71657526 C452.07359525 131.69193409 428.93867475 131.678264 405.80372047 131.67706418 C393.20644943 131.6761493 380.60922191 131.67044415 368.01196289 131.65224457 C357.284164 131.63679981 346.55642208 131.63174891 335.82861418 131.63998267 C330.36184079 131.64387355 324.89518201 131.64303632 319.42842293 131.62892532 C314.4106753 131.61609249 309.39312728 131.61746527 304.37537956 131.62951604 C302.57323897 131.6314569 300.77108378 131.62847043 298.96896362 131.61967167 C249.71685355 131.39468746 204.83077775 152.26544368 172 189 Z " fill="#FEFEFE" transform="translate(0,0)"/>
<path d="M0 0 C3.15286304 0.00314657 6.30477271 -0.02032016 9.45751953 -0.0456543 C22.10780479 -0.0848496 34.14718185 0.84770001 46.55517578 3.31567383 C47.27623505 3.45599533 47.99729431 3.59631683 48.74020386 3.7408905 C73.53917478 8.61353288 97.05548749 18.54383962 117.55517578 33.31567383 C118.39918945 33.92161377 118.39918945 33.92161377 119.26025391 34.53979492 C131.00977351 43.04239733 131.00977351 43.04239733 134.55517578 49.31567383 C135.69195128 57.14679392 132.51851362 61.21377771 128.05493164 67.39233398 C126.4712866 69.50834907 124.86336261 71.60290826 123.24267578 73.69067383 C122.6694458 74.43309326 122.09621582 75.1755127 121.50561523 75.94042969 C120.37052307 77.40774395 119.23346571 78.87354054 118.09423828 80.33764648 C116.79499483 82.00745461 115.50244576 83.68246831 114.21142578 85.35864258 C102.36968113 100.51325627 102.36968113 100.51325627 94.55517578 101.81567383 C88.72145277 101.70629152 84.19025709 97.46173526 79.55517578 94.31567383 C50.04609475 75.25482579 15.16406506 62.11618312 -20.45043945 69.44726562 C-31.34101396 72.14157963 -39.94610941 77.08611609 -46.44482422 86.31567383 C-51.84860831 95.37689715 -53.17604431 105.07684163 -50.69091797 115.46801758 C-46.06753726 128.68544714 -37.78712436 136.08724177 -25.44482422 142.12817383 C-9.42618755 149.64385604 7.70620225 154.57972475 24.54882812 159.89135742 C55.79920718 169.74900581 85.52319801 179.74071003 111.55517578 200.31567383 C112.15845703 200.77586914 112.76173828 201.23606445 113.38330078 201.71020508 C128.54094431 213.63687722 137.74681834 232.31687489 140.99267578 251.06567383 C144.53751239 284.70223455 136.61402107 316.46720728 115.22802734 342.9597168 C99.70614344 361.63088907 79.41719647 372.1635086 56.55517578 379.31567383 C55.57677734 379.6224707 54.59837891 379.92926758 53.59033203 380.24536133 C33.6421335 385.79765762 13.08958826 385.8280488 -7.44482422 385.31567383 C-8.32605957 385.2948877 -9.20729492 385.27410156 -10.11523438 385.25268555 C-54.26102634 383.99722275 -99.42533257 368.45630937 -132.84326172 339.16723633 C-135.43177898 336.17465784 -136.34298872 333.2729275 -136.75732422 329.37817383 C-136.11120559 323.0462113 -132.20331689 318.4624767 -128.31982422 313.69067383 C-127.33429338 312.45982758 -126.34993763 311.22803961 -125.36669922 309.99536133 C-124.87621094 309.38144531 -124.38572266 308.7675293 -123.88037109 308.13500977 C-121.7228865 305.40072826 -119.6473469 302.61126643 -117.56982422 299.81567383 C-111.31785053 291.44988435 -111.31785053 291.44988435 -108.44482422 288.31567383 C-107.78482422 288.31567383 -107.12482422 288.31567383 -106.44482422 288.31567383 C-106.23857422 287.71754883 -106.03232422 287.11942383 -105.81982422 286.50317383 C-103.84289159 283.35805373 -101.9156107 282.55991804 -98.44482422 281.31567383 C-92.11716338 281.54110646 -88.14504958 283.96532486 -83.00732422 287.31567383 C-81.40836432 288.32294957 -79.80807768 289.328122 -78.20654297 290.33129883 C-77.40780762 290.83467773 -76.60907227 291.33805664 -75.78613281 291.85668945 C-60.5480224 301.35230445 -44.92234504 308.97914611 -27.44482422 313.31567383 C-26.60177734 313.5296582 -25.75873047 313.74364258 -24.89013672 313.96411133 C-14.80555541 316.37184873 -4.70513919 316.5552099 5.61767578 316.56567383 C6.3067099 316.56668091 6.99574402 316.56768799 7.70565796 316.56872559 C25.28889636 316.55133594 43.30529568 315.26154138 56.55517578 302.31567383 C62.97794632 294.2975256 65.98864235 286.11196741 65.83251953 275.80786133 C64.81098624 266.62844949 60.37638277 258.31110315 53.29736328 252.44458008 C44.68300337 246.16608892 35.12465682 241.91051117 25.18017578 238.19067383 C24.17196777 237.81233398 23.16375977 237.43399414 22.125 237.04418945 C12.74971613 233.6086734 3.23796094 230.69045148 -6.31982422 227.81567383 C-98.29728908 200.14246022 -98.29728908 200.14246022 -119.48828125 162.13208008 C-126.28487062 149.22584605 -130.82275591 133.91035347 -131.44482422 119.31567383 C-131.51958984 118.2199707 -131.59435547 117.12426758 -131.67138672 115.99536133 C-132.69463001 89.33718083 -121.65104307 63.31124328 -104.44482422 43.31567383 C-103.70619141 42.43137695 -102.96755859 41.54708008 -102.20654297 40.63598633 C-86.63163858 22.63945196 -65.77093581 10.69015223 -42.88232422 4.56567383 C-42.13958252 4.3669165 -41.39684082 4.16815918 -40.6315918 3.96337891 C-38.24496477 3.36006318 -35.85334981 2.8245989 -33.44482422 2.31567383 C-32.13143066 2.03203979 -32.13143066 2.03203979 -30.79150391 1.74267578 C-20.59034598 -0.14627172 -10.34194905 -0.02152248 0 0 Z " fill="#FEFEFE" transform="translate(509.44482421875,224.684326171875)"/>
<path d="M0 0 C8.67053486 6.63947257 15.32265259 15.78807521 17.5625 26.6875 C17.80879247 30.22590181 17.79366265 33.7663681 17.8125 37.3125 C17.833125 38.25996094 17.85375 39.20742188 17.875 40.18359375 C17.93038641 50.30546065 15.49345937 58.48359811 9.5625 66.6875 C8.82 67.71875 8.0775 68.75 7.3125 69.8125 C-2.2514593 79.81118472 -14.75766521 82.80866595 -28.25 83.125 C-40.14653471 82.7501092 -51.76658568 79.28416642 -60.6875 71.125 C-71.20667779 59.86053634 -73.04512797 46.24474968 -72.75 31.5546875 C-72.48107415 25.69882704 -71.23848022 20.85317068 -68.4375 15.6875 C-68.01339844 14.90375 -67.58929688 14.12 -67.15234375 13.3125 C-61.22671907 3.54099634 -52.67043936 -3.18878589 -41.765625 -6.390625 C-27.72281012 -9.76141965 -12.09172134 -7.96546628 0 0 Z " fill="#FEFCFD" transform="translate(510.4375,696.3125)"/>
<path d="M0 0 C2.37109375 1.875 2.37109375 1.875 4 4 C3.95187788 8.25537076 1.89560199 10.96054274 -0.5625 14.3125 C-1.20316406 15.19550781 -1.84382813 16.07851563 -2.50390625 16.98828125 C-2.99761719 17.65214844 -3.49132812 18.31601562 -4 19 C-4.67804688 18.61328125 -5.35609375 18.2265625 -6.0546875 17.828125 C-9.01376793 16.17235146 -11.99691797 14.57450592 -15 13 C-15.80179687 12.57460938 -16.60359375 12.14921875 -17.4296875 11.7109375 C-24.69670566 8.30987513 -32.09447682 7.97113881 -40 9 C-44.00925164 10.48512542 -46.925921 12.24661938 -49.1796875 15.92578125 C-50.87696286 20.21746324 -50.57188103 24.46306972 -49 28.6875 C-42.39592456 36.32346223 -32.06949259 38.55185252 -22.81835938 41.51757812 C-10.70869642 45.52106529 1.26465235 50.37722485 7.375 62.25 C11.14085145 70.43663359 11.25560826 79.26629706 8.375 87.8125 C3.91606338 98.46440416 -2.39102844 103.62056711 -12.83203125 108.2578125 C-27.83573347 113.76623206 -45.49837416 112.5342453 -60 106 C-66.3136045 102.73756861 -73.06015221 99.07507998 -77 93 C-72.64547089 86.87644344 -68.27864722 82.15858452 -62 78 C-61.25169922 78.76183594 -61.25169922 78.76183594 -60.48828125 79.5390625 C-52.29748236 87.39164169 -43.7789342 92.27843885 -32.25 92.625 C-25.0994354 92.31474823 -19.50973669 90.96134033 -14 86.3125 C-11.90180249 81.46041825 -11.50267276 76.84721547 -12.875 71.75 C-18.14166951 64.93431005 -27.34999403 62.67063767 -35.25 60.125 C-48.98775466 55.4965327 -63.10994768 50.45040664 -70.5 37 C-73.46613026 29.37280791 -73.5006916 18.6847925 -70.5 11.0625 C-64.8391763 0.72705882 -56.41558854 -5.80026884 -45.16796875 -9.13671875 C-29.35813593 -12.81424765 -13.37574742 -8.9320517 0 0 Z " fill="#FEFCFD" transform="translate(322,669)"/>
<path d="M0 0 C0.33 15.18 0.66 30.36 1 46 C3.31 43.36 5.62 40.72 8 38 C16.76964588 32.81793653 25.64007917 31.75398758 35.72265625 33.4609375 C43.6316773 35.53904195 50.4680318 39.88156937 54.88713074 46.89237976 C59.40726982 55.4528971 59.40942842 64.75500193 59.29296875 74.19921875 C59.28872391 75.51541702 59.28447906 76.8316153 59.28010559 78.18769836 C59.2687759 81.64832378 59.23941508 85.10855764 59.20599365 88.56903076 C59.17503284 92.11562812 59.16154531 95.66229017 59.14648438 99.20898438 C59.11453063 106.13949774 59.06186361 113.06968963 59 120 C52.4 120 45.8 120 39 120 C38.98541748 118.3099585 38.97083496 116.61991699 38.95581055 114.87866211 C38.9040196 109.27461925 38.83869664 103.67084167 38.76428509 98.06705379 C38.71968929 94.67176151 38.68041026 91.27658622 38.65356445 87.88110352 C38.62241318 83.97126014 38.56762824 80.06191449 38.51171875 76.15234375 C38.50532883 74.94166733 38.4989389 73.73099091 38.49235535 72.48362732 C38.38425981 66.25453606 38.11241425 61.46115413 35 56 C30.65785526 51.9292393 26.46360552 51.81855912 20.6875 51.75 C18.74423828 51.71132813 18.74423828 51.71132813 16.76171875 51.671875 C12.08764251 52.07958258 8.80592482 53.31418419 5.35546875 56.53515625 C2.0022476 60.92013776 0.87911643 62.98302017 0.79467773 68.45947266 C0.77473251 69.60050446 0.75478729 70.74153625 0.73423767 71.91714478 C0.70916893 73.77186905 0.70916893 73.77186905 0.68359375 75.6640625 C0.66281265 76.92640717 0.64203156 78.18875183 0.62062073 79.48934937 C0.56622074 82.84632045 0.51599764 86.20330189 0.46777344 89.56036377 C0.41754958 92.98561065 0.36186814 96.41076829 0.30664062 99.8359375 C0.19938137 106.55722286 0.0981299 113.27857541 0 120 C-6.27 120 -12.54 120 -19 120 C-19 80.73 -19 41.46 -19 1 C-10 0 -10 0 0 0 Z " fill="#FEFCFD" transform="translate(366,656)"/>
<path d="M0 0 C0.83265381 0.00523682 1.66530762 0.01047363 2.52319336 0.01586914 C3.42231445 0.0190918 4.32143555 0.02231445 5.24780273 0.02563477 C6.66609375 0.03820312 6.66609375 0.03820312 8.11303711 0.05102539 C9.53712891 0.05779297 9.53712891 0.05779297 10.98999023 0.06469727 C13.3435708 0.0765243 15.69701292 0.09384445 18.05053711 0.11352539 C16.05049956 7.00123551 13.83031735 13.77915073 11.42553711 20.53540039 C11.08216309 21.505858 10.73878906 22.47631561 10.38500977 23.47618103 C9.27637113 26.60631626 8.16385093 29.7350502 7.05053711 32.86352539 C6.67026367 33.93365875 6.28999023 35.00379211 5.89819336 36.10635376 C3.29000461 43.44483474 0.67247233 50.77994614 -1.94946289 58.11352539 C-2.24626953 58.94487 -2.54307617 59.7762146 -2.84887695 60.63275146 C-7.5748774 73.8667384 -12.36167368 87.07405707 -17.76196289 100.05102539 C-18.09905273 100.88013428 -18.43614258 101.70924316 -18.78344727 102.56347656 C-21.58603157 109.09895507 -25.35236362 115.53634447 -32.13696289 118.48852539 C-32.79051758 118.78500977 -33.44407227 119.08149414 -34.11743164 119.38696289 C-42.10486074 122.55468531 -50.84381781 121.55412622 -58.94946289 119.11352539 C-59.60946289 118.78352539 -60.26946289 118.45352539 -60.94946289 118.11352539 C-61.17523692 112.69494879 -60.41616402 108.33864818 -58.94946289 103.11352539 C-58.0690332 103.20891602 -57.18860352 103.30430664 -56.28149414 103.40258789 C-55.12004883 103.51344727 -53.95860352 103.62430664 -52.76196289 103.73852539 C-51.03913086 103.91254883 -51.03913086 103.91254883 -49.28149414 104.09008789 C-44.71835083 104.12218503 -42.09208246 103.2225385 -38.82446289 100.05102539 C-35.71824229 95.18461312 -33.36356914 91.0289422 -34.55004883 85.125 C-35.70166833 81.72336105 -37.00118768 78.42659992 -38.38696289 75.11352539 C-39.28326841 72.8642316 -40.17777277 70.61421931 -41.07055664 68.36352539 C-41.77547241 66.61543579 -41.77547241 66.61543579 -42.49462891 64.83203125 C-44.32076049 60.16450143 -45.97900343 55.44853291 -47.62921143 50.71669006 C-50.51631452 42.45181 -53.57658724 34.25297353 -56.63696289 26.05102539 C-57.21065993 24.51005791 -57.78422795 22.96904239 -58.35766602 21.42797852 C-60.87960289 14.65322134 -63.41120938 7.88220143 -65.94946289 1.11352539 C-59.01946289 1.11352539 -52.08946289 1.11352539 -44.94946289 1.11352539 C-41.71532804 9.03987027 -38.7220807 17.04459385 -35.79541016 25.08813477 C-35.02046453 27.21519025 -34.23996299 29.34015158 -33.45922852 31.46508789 C-30.86088088 38.57297042 -28.3678513 45.70686777 -26.07055664 52.91821289 C-25.85544937 53.58257355 -25.6403421 54.2469342 -25.41871643 54.931427 C-24.39715277 58.20232677 -23.94946289 60.63817787 -23.94946289 64.11352539 C-23.28946289 64.11352539 -22.62946289 64.11352539 -21.94946289 64.11352539 C-21.80831055 62.72133789 -21.80831055 62.72133789 -21.66430664 61.30102539 C-20.90769312 56.05587101 -19.16807278 51.13179807 -17.51196289 46.11352539 C-16.79309587 43.90523015 -16.07435205 41.6968948 -15.35571289 39.48852539 C-14.9702832 38.31032227 -14.58485352 37.13211914 -14.18774414 35.91821289 C-12.85104191 31.82228261 -11.54043686 27.71814625 -10.23071289 23.61352539 C-9.54867515 21.4806283 -8.86630797 19.34783692 -8.18380737 17.21508789 C-7.73599398 15.81430563 -7.28899239 14.41326359 -6.84280396 13.01196289 C-6.21590421 11.04487029 -5.58511368 9.07906649 -4.95336914 7.11352539 C-4.59057861 5.97915039 -4.22778809 4.84477539 -3.85400391 3.67602539 C-2.61005043 0.15199417 -2.61005043 0.15199417 0 0 Z " fill="#FEFBFC" transform="translate(762.949462890625,690.886474609375)"/>
<path d="M0 0 C6.27 0 12.54 0 19 0 C19 7.26 19 14.52 19 22 C26.59 22 34.18 22 42 22 C41.67 27.94 41.34 33.88 41 40 C34.07 40 27.14 40 20 40 C20.09699591 46.31749684 20.19976627 52.63434707 20.31738281 58.95141602 C20.35563385 61.09979534 20.39049347 63.24823787 20.421875 65.39672852 C20.46760937 68.48737146 20.52559056 71.57758081 20.5859375 74.66796875 C20.59748871 75.62648239 20.60903992 76.58499603 20.62094116 77.57255554 C20.73462426 84.02090409 20.73462426 84.02090409 23 90 C26.40091691 92.65398656 30.08616407 92.20210807 34.25 92.125 C35.51328125 92.10695313 36.7765625 92.08890625 38.078125 92.0703125 C39.04234375 92.04710937 40.0065625 92.02390625 41 92 C41.50636607 93.74816858 42.00484619 95.49862263 42.5 97.25 C42.7784375 98.22453125 43.056875 99.1990625 43.34375 100.203125 C44 103 44 103 44 107 C38.79323366 109.1113059 34.21318561 109.33434065 28.6875 109.3125 C27.4819043 109.33666992 27.4819043 109.33666992 26.25195312 109.36132812 C19.52273509 109.36674182 13.42956927 108.19143663 7.6953125 104.52734375 C0.94118023 97.68920486 -0.34205461 89.76256442 -0.33988953 80.39620972 C-0.32440567 79.37600739 -0.30892181 78.35580505 -0.29296875 77.3046875 C-0.28872391 76.23123077 -0.28447906 75.15777405 -0.28010559 74.05178833 C-0.2634566 70.65925872 -0.22583024 67.26734681 -0.1875 63.875 C-0.17243536 61.55990448 -0.15875009 59.24479954 -0.14648438 56.9296875 C-0.11359826 51.28622422 -0.06191219 45.64321645 0 40 C-5.28 40 -10.56 40 -16 40 C-16 34.06 -16 28.12 -16 22 C-10.72 22 -5.44 22 0 22 C0 14.74 0 7.48 0 0 Z " fill="#FEFBFC" transform="translate(612,669)"/>
<path d="M0 0 C0 39.93 0 79.86 0 121 C-6.6 121 -13.2 121 -20 121 C-20 81.73 -20 42.46 -20 2 C-4 0 -4 0 0 0 Z " fill="#FEFAFB" transform="translate(688,655)"/>
<path d="M0 0 C5.3667254 4.47227117 8.38527373 10.44074081 9.31811523 17.359375 C9.85162191 26.0199956 10.40141404 35.46959475 5.69921875 43.08203125 C1.21602758 48.14236887 -4.43270127 51.69732011 -11.22265625 52.2734375 C-19.43698744 52.49070364 -26.25321206 52.23348971 -33 47 C-39.56547745 40.32486948 -41.39408635 33.33654143 -41.375 24.1875 C-41.37338867 23.38868408 -41.37177734 22.58986816 -41.37011719 21.7668457 C-41.24533315 15.77415371 -40.37705509 11.06558264 -37 6 C-36.4225 5.071875 -35.845 4.14375 -35.25 3.1875 C-25.86244681 -5.93928783 -10.98368923 -6.53240465 0 0 Z " fill="#E6427F" transform="translate(499,710)"/>
<path d="M0 0 C0 6.6 0 13.2 0 20 C-2.475 20.12375 -2.475 20.12375 -5 20.25 C-12.1772467 20.93179237 -17.29252924 22.85914614 -22.25 28.1875 C-27.95839951 35.67946549 -29.59746044 42.63442276 -29.609375 51.94140625 C-29.62591125 52.94968979 -29.64244751 53.95797333 -29.65948486 54.99681091 C-29.70767905 58.18543767 -29.72927244 61.37358852 -29.75 64.5625 C-29.77818354 66.73765379 -29.80811427 68.91278568 -29.83984375 71.08789062 C-29.91668762 76.39214001 -29.95747433 81.6949231 -30 87 C-36.6 87 -43.2 87 -50 87 C-50 58.95 -50 30.9 -50 2 C-43.73 2 -37.46 2 -31 2 C-29.18884044 3.81115956 -29.61800552 6.61278227 -29.4375 9.0625 C-29.31181641 10.71958984 -29.31181641 10.71958984 -29.18359375 12.41015625 C-29.12300781 13.26480469 -29.06242188 14.11945312 -29 15 C-28.505 14.154375 -28.01 13.30875 -27.5 12.4375 C-24.11947746 7.39069153 -19.59123757 3.32441032 -14.1875 0.5625 C-9.42342108 -0.27821981 -4.83478748 -0.11792165 0 0 Z " fill="#FEF9FB" transform="translate(592,689)"/>
<path d="M0 0 C1.4406178 0.0005661 2.88123617 0.0002437 4.32185364 -0.00088501 C8.18039883 -0.0014518 12.03881612 0.01019144 15.89733195 0.02426291 C19.94917169 0.03688445 24.00101534 0.03794967 28.0528717 0.04031372 C35.70224895 0.04649528 43.35156807 0.06286042 51.00091988 0.0830127 C59.71935241 0.10547604 68.43778792 0.1163912 77.15624225 0.12640357 C95.06911941 0.14723014 112.9819427 0.18234046 130.89477539 0.22705078 C130.89477539 0.55705078 130.89477539 0.88705078 130.89477539 1.22705078 C130.25923202 1.23128272 129.62368864 1.23551466 128.96888638 1.23987484 C113.44151115 1.34357772 97.91417985 1.45227113 82.38687801 1.56639004 C74.87772498 1.62146106 67.36856721 1.67489736 59.859375 1.72436523 C53.30764169 1.76752999 46.75593966 1.81388421 40.20425516 1.86392933 C36.74131817 1.89027332 33.27838633 1.91511473 29.81541252 1.9361248 C11.21761361 1.99632056 11.21761361 1.99632056 -7.34397888 3.01942444 C-9.98828355 3.21825763 -12.5797454 3.25979741 -15.23022461 3.22705078 C-18.46767971 3.22705078 -20.9911137 3.4894982 -24.10522461 4.22705078 C-25.80678711 4.44361328 -25.80678711 4.44361328 -27.54272461 4.66455078 C-31.02302512 5.11402648 -31.02302512 5.11402648 -33.91772461 6.16455078 C-36.62727263 7.06773345 -39.12128122 7.64669089 -41.91772461 8.16455078 C-49.71868217 9.68043192 -56.51866621 12.25229283 -63.55053711 15.94580078 C-66.07268708 17.21073226 -68.64273607 18.30288923 -71.24047852 19.40136719 C-74.48334089 20.83726147 -77.60249675 22.49579354 -80.73022461 24.16455078 C-81.37217773 24.4990625 -82.01413086 24.83357422 -82.67553711 25.17822266 C-86.4945157 27.20901148 -89.79041433 29.41751309 -93.10522461 32.22705078 C-93.8722168 32.82904297 -94.63920898 33.43103516 -95.42944336 34.05126953 C-111.58729624 46.79060147 -128.19789325 61.08608447 -137.71069336 79.61376953 C-139.03725956 82.0996877 -140.49497042 84.35527152 -142.10522461 86.66455078 C-147.49075646 94.56615787 -151.37726859 103.08471168 -154.10522461 112.22705078 C-154.43522461 113.17580078 -154.76522461 114.12455078 -155.10522461 115.10205078 C-156.29555908 118.82184601 -157.31366911 122.57597129 -158.32397461 126.34814453 C-158.87823778 128.39060431 -159.48693908 130.41863854 -160.13256836 132.43408203 C-161.33076427 137.10656489 -161.76451091 141.6805609 -162.16772461 146.47705078 C-162.32213155 148.25336865 -162.47955338 150.02942772 -162.64038086 151.80517578 C-162.70620361 152.58280273 -162.77202637 153.36042969 -162.83984375 154.16162109 C-163.10522461 156.22705078 -163.10522461 156.22705078 -164.10522461 159.22705078 C-164.25014584 160.63370004 -164.35151392 162.04516408 -164.42163086 163.45751953 C-164.46352539 164.25996094 -164.50541992 165.06240234 -164.54858398 165.88916016 C-164.58790039 166.72253906 -164.6272168 167.55591797 -164.66772461 168.41455078 C-164.7109082 169.25953125 -164.7540918 170.10451172 -164.79858398 170.97509766 C-164.90453979 173.05889512 -165.00537481 175.14295181 -165.10522461 177.22705078 C-164.44522461 177.55705078 -163.78522461 177.88705078 -163.10522461 178.22705078 C-163.60022461 179.21705078 -163.60022461 179.21705078 -164.10522461 180.22705078 C-164.20582593 182.47291456 -164.23915837 184.72186177 -164.24388981 186.96997261 C-164.24673203 187.67464375 -164.24957424 188.37931489 -164.25250259 189.10533971 C-164.26089119 191.49041421 -164.26212104 193.87544041 -164.26344299 196.26052856 C-164.26800551 197.97817281 -164.27300507 199.69581594 -164.27840656 201.41345775 C-164.2920324 206.15199132 -164.29941884 210.89051768 -164.30583322 215.62906575 C-164.31381771 220.73201805 -164.32752216 225.83495526 -164.34054565 230.93789673 C-164.36233618 239.78526463 -164.38047121 248.63263404 -164.39615059 257.4800148 C-164.41882581 270.27197446 -164.44697186 283.06391743 -164.47646987 295.85586296 C-164.52417463 316.60800285 -164.56743097 337.36014954 -164.60791016 358.11230469 C-164.64725043 378.27572154 -164.68867311 398.43913233 -164.73291016 418.60253906 C-164.73563443 419.84460378 -164.7383587 421.08666849 -164.74116553 422.36637153 C-164.75484476 428.59720398 -164.76856508 434.82803633 -164.78230584 441.05886865 C-164.8963159 492.7815834 -165.00311522 544.50431126 -165.10522461 596.22705078 C-165.43522461 596.22705078 -165.76522461 596.22705078 -166.10522461 596.22705078 C-166.17395138 539.87712606 -166.22678418 483.52720552 -166.2584206 427.17724709 C-166.26217254 420.51855528 -166.26605203 413.85986356 -166.27001953 407.20117188 C-166.27041181 406.53858206 -166.27080409 405.87599224 -166.27120825 405.19332394 C-166.28436893 383.08443572 -166.30822777 360.97557348 -166.336683 338.86670014 C-166.36477736 316.85396352 -166.38140939 294.84123955 -166.38749009 272.82848573 C-166.39159817 259.25493026 -166.40455446 245.6814433 -166.42897401 232.10790893 C-166.44488097 222.78910549 -166.44961377 213.47033726 -166.44572874 204.15152124 C-166.4438149 198.78204009 -166.44666528 193.41267832 -166.46284103 188.04321861 C-166.47758155 183.11381614 -166.47808651 178.18461184 -166.46792129 173.2551997 C-166.46666741 171.4849996 -166.47035213 169.71478645 -166.47987416 167.94461152 C-166.55990756 152.12842845 -165.24929034 136.11227745 -160.35522461 120.97705078 C-160.09918457 120.15825439 -159.84314453 119.33945801 -159.5793457 118.49584961 C-156.99533092 110.47356621 -153.79792833 102.79758058 -150.10522461 95.22705078 C-149.79858887 94.59460449 -149.49195313 93.9621582 -149.17602539 93.31054688 C-129.79763224 53.90078205 -93.9697178 22.48192028 -52.46606445 8.24316406 C-35.18371906 2.54564411 -18.19828964 -0.09979247 0 0 Z " fill="#9409AB" transform="translate(297.105224609375,131.77294921875)"/>
<path d="M0 0 C0.875 1.6875 0.875 1.6875 1 4 C0.05439935 6.0262871 -0.95377125 8.02379014 -2 10 C-2.7013284 12.32315031 -3.36485174 14.65789079 -4 17 C-5.55882885 22.14314231 -7.43094617 27.06607981 -9.5625 32 C-11.37478961 36.26103806 -12.60636783 40.24967023 -13.4765625 44.78125 C-14.76154468 50.22804012 -17.25466147 55.36025523 -19.5625 60.4375 C-21.17886862 64.44328311 -22.23071663 68.45350032 -23.25390625 72.64453125 C-24 75 -24 75 -26 77 C-26.68207995 79.02331281 -27.29787423 81.06928756 -27.875 83.125 C-29.22454295 87.67161518 -30.68031534 91.76170645 -32.94921875 95.9140625 C-34.26110105 98.51831955 -35.22251419 101.20899253 -36.25 103.9375 C-39.64472809 112.19974591 -45.10372986 118.70226619 -53 123 C-56.0000884 123.61494913 -58.94373854 123.73937163 -62 123.8125 C-62.78117188 123.85052734 -63.56234375 123.88855469 -64.3671875 123.92773438 C-68.72214468 124.10002645 -72.70908323 123.90081746 -77 123 C-77 122.34 -77 121.68 -77 121 C-77.928125 120.9071875 -77.928125 120.9071875 -78.875 120.8125 C-81 120 -81 120 -82.375 117.8125 C-83.16746953 114.2463871 -82.29015162 112.36872923 -81 109 C-81 107.68 -81 106.36 -81 105 C-80.34 105 -79.68 105 -79 105 C-78.67 104.01 -78.34 103.02 -78 102 C-77.35933594 102.0721875 -76.71867188 102.144375 -76.05859375 102.21875 C-71.00442191 102.76107544 -66.08220279 103.11048267 -61 103 C-61 102.34 -61 101.68 -61 101 C-60.34 101 -59.68 101 -59 101 C-59 100.34 -59 99.68 -59 99 C-58.34 99 -57.68 99 -57 99 C-54.72395411 92.65102988 -55.20057143 88.80780372 -57.2734375 82.41796875 C-58 80 -58 80 -58 77 C-58.66 76.67 -59.32 76.34 -60 76 C-60.9296875 73.62890625 -60.9296875 73.62890625 -61.875 70.5625 C-63.08569831 66.7657145 -64.33551627 63.0505174 -65.875 59.375 C-68.13367959 53.87560621 -69.96346559 48.24426571 -71.80615234 42.59521484 C-73.01284171 38.90725532 -74.26373615 35.25428359 -75.6484375 31.62890625 C-77 28 -77 28 -77.5625 25.0625 C-77.706875 24.381875 -77.85125 23.70125 -78 23 C-78.66 22.67 -79.32 22.34 -80 22 C-80.74609375 20.25 -80.74609375 20.25 -81.4375 18 C-82.21668775 15.4946117 -82.9968055 13.00877442 -83.89453125 10.54296875 C-84.17683594 9.76566406 -84.45914063 8.98835937 -84.75 8.1875 C-85.01296875 7.47980469 -85.2759375 6.77210938 -85.546875 6.04296875 C-86 4 -86 4 -85 0 C-77.74 0 -70.48 0 -63 0 C-59.54253327 6.91493346 -58.49276756 9.1012542 -58 16 C-57.34 16 -56.68 16 -56 16 C-55.49528803 17.76949612 -54.99639315 19.54065223 -54.5 21.3125 C-54.08234375 22.79169922 -54.08234375 22.79169922 -53.65625 24.30078125 C-53 27 -53 27 -53 30 C-52.34 30.33 -51.68 30.66 -51 31 C-50.27493112 32.97265704 -49.64450778 34.98050312 -49.0625 37 C-47.47961579 42.37471878 -45.80254157 47.6957057 -44 53 C-43.67 53.99 -43.34 54.98 -43 56 C-40.37467291 53.37467291 -39.66240484 50.45413153 -38.5625 47 C-38.34150635 46.32300049 -38.1205127 45.64600098 -37.89282227 44.94848633 C-36.68060931 41.21145898 -35.53273471 37.46064377 -34.4375 33.6875 C-33.46108031 30.33660516 -32.28126026 27.15857239 -30.9375 23.9375 C-29.63056178 20.7880737 -28.68659323 17.85008536 -28.0625 14.5 C-27.02936475 9.20162748 -24.57262896 4.70339417 -22 0 C-18.89635771 -0.19696449 -15.79207808 -0.38093262 -12.6875 -0.5625 C-11.36588867 -0.64661133 -11.36588867 -0.64661133 -10.01757812 -0.73242188 C-8.74624023 -0.80493164 -8.74624023 -0.80493164 -7.44921875 -0.87890625 C-6.27879028 -0.94960327 -6.27879028 -0.94960327 -5.0847168 -1.02172852 C-3 -1 -3 -1 0 0 Z M-21 1 C-23.48159619 6.75268524 -23.48159619 6.75268524 -25.578125 12.58325195 C-25.84850586 13.41133865 -26.11888672 14.23942535 -26.39746094 15.09260559 C-26.67879883 15.96567856 -26.96013672 16.83875153 -27.25 17.73828125 C-27.54938477 18.65908981 -27.84876953 19.57989838 -28.15722656 20.52861023 C-28.78733965 22.4686904 -29.41589298 24.40927778 -30.04296875 26.3503418 C-30.99399701 29.29391983 -31.94968469 32.2359516 -32.90625 35.17773438 C-33.5211077 37.07282767 -34.13569965 38.96800721 -34.75 40.86328125 C-35.03133789 41.73028152 -35.31267578 42.5972818 -35.60253906 43.49055481 C-36.40981318 45.99120125 -37.20712145 48.49475461 -38 51 C-38.28681641 51.89560638 -38.57363281 52.79121277 -38.86914062 53.71395874 C-39.14435547 54.59492218 -39.41957031 55.47588562 -39.703125 56.38354492 C-39.95223633 57.17379562 -40.20134766 57.96404633 -40.45800781 58.77824402 C-41.15799843 61.26652189 -41.15799843 61.26652189 -41 65 C-41.66 65 -42.32 65 -43 65 C-43.0928125 64.07058594 -43.185625 63.14117188 -43.28125 62.18359375 C-44.03637838 56.94882355 -45.79942443 52.05355755 -47.5 47.0625 C-47.85022217 46.02287109 -48.20044434 44.98324219 -48.5612793 43.91210938 C-52.12802538 33.43139949 -56.00218851 23.06877104 -59.96020508 12.73046875 C-61.3203486 9.15877465 -62.65803812 5.57856501 -64 2 C-70.93 2 -77.86 2 -85 2 C-83.3778462 6.45938097 -81.7534701 10.91792409 -80.125 15.375 C-79.87768127 16.05203979 -79.63036255 16.72907959 -79.37554932 17.42663574 C-75.96993211 26.73921743 -72.47481762 36.01037283 -68.875 45.25 C-64.23106063 57.20014505 -59.89491324 69.25559549 -55.85620117 81.42431641 C-55.33543137 82.99093214 -54.79820109 84.552366 -54.23168945 86.10302734 C-53.21971409 89.06024869 -52.92147036 90.72611338 -53.79296875 93.765625 C-54.25316406 94.58546875 -54.71335937 95.4053125 -55.1875 96.25 C-55.63480469 97.08015625 -56.08210937 97.9103125 -56.54296875 98.765625 C-59.75807742 103.69603294 -59.75807742 103.69603294 -63.234375 104.546875 C-68.37193089 104.96170871 -72.93445487 104.99108492 -78 104 C-79.46670113 109.22512279 -80.22577402 113.5814234 -80 119 C-73.67756237 122.79346258 -65.16814063 122.72588766 -58 122 C-51.23618643 120.05236041 -45.29155508 116.35198125 -41.26953125 110.46875 C-29.43481966 86.35512853 -21.46780554 60.18337498 -12.63769531 34.875 C-11.84463412 32.60408526 -11.05134609 30.33324972 -10.2578125 28.0625 C-9.69187378 26.44226929 -9.69187378 26.44226929 -9.11450195 24.78930664 C-6.79537876 18.17952192 -4.38789918 11.62429311 -1.77294922 5.125 C-0.88605675 3.06361455 -0.88605675 3.06361455 -1 1 C-7.6 1 -14.2 1 -21 1 Z " fill="#F24263" transform="translate(782,690)"/>
<path d="M0 0 C0.66 0.33 1.32 0.66 2 1 C-27.8889273 32.4551593 -67.51309294 55.69938369 -111.86617708 57.1241985 C-113.23776505 57.12886768 -114.60937847 57.12821196 -115.98096466 57.12304783 C-116.74658683 57.12420167 -117.51220899 57.12535552 -118.30103183 57.12654433 C-120.85732633 57.12918365 -123.4135574 57.12471106 -125.96984863 57.12025452 C-127.82466379 57.12069077 -129.67947888 57.12156667 -131.53429365 57.12284368 C-136.62413181 57.12507805 -141.7139489 57.1210818 -146.80378437 57.11606562 C-152.29517427 57.11174615 -157.78656298 57.11320861 -163.2779541 57.1139679 C-172.78984356 57.11449218 -182.30172616 57.11135534 -191.81361389 57.10573006 C-205.56619856 57.09760214 -219.31877992 57.09499851 -233.07136673 57.09374207 C-255.38416813 57.09155358 -277.69696633 57.08490759 -300.00976562 57.07543945 C-321.6842446 57.0662528 -343.35872259 57.05917027 -365.03320312 57.05493164 C-365.70148796 57.05480011 -366.3697728 57.05466859 -367.0583087 57.05453308 C-374.43554026 57.0530837 -381.81277182 57.05169187 -389.1900034 57.05032361 C-444.79333812 57.03995733 -500.39666889 57.02234453 -556 57 C-556 56.67 -556 56.34 -556 56 C-554.62469955 55.99739563 -554.62469955 55.99739563 -553.22161525 55.99473864 C-498.85923513 55.89167079 -444.49686705 55.78354988 -390.1345101 55.66888306 C-383.60456605 55.65511378 -377.07462192 55.64138663 -370.54467773 55.62768555 C-369.24470435 55.62495724 -367.94473097 55.62222894 -366.60536445 55.61941796 C-345.56695915 55.5753643 -324.52854857 55.53472328 -303.49013405 55.49534739 C-281.8966466 55.4548565 -260.30316891 55.41068909 -238.70969588 55.36312145 C-225.38951287 55.3338943 -212.06933054 55.30752169 -198.74913479 55.28482103 C-189.61024536 55.26897133 -180.47136785 55.24954475 -171.33249169 55.22733159 C-166.06291572 55.21462804 -160.79334879 55.20347649 -155.52376175 55.19658089 C-150.69150634 55.19022261 -145.85928229 55.17933394 -141.02704424 55.1649667 C-139.28655008 55.16056928 -137.54605087 55.15777999 -135.8055514 55.15683801 C-111.75084176 55.14133967 -84.68006414 54.51151369 -62.80859375 43.375 C-60 42 -60 42 -57 42 C-56.67 41.34 -56.34 40.68 -56 40 C-53.78515625 38.9296875 -53.78515625 38.9296875 -51.0625 37.875 C-50.16660156 37.52179687 -49.27070312 37.16859375 -48.34765625 36.8046875 C-46 36 -46 36 -44 36 C-44 35.34 -44 34.68 -44 34 C-43.17822266 33.65001953 -43.17822266 33.65001953 -42.33984375 33.29296875 C-36.4651981 30.58967653 -31.31680169 27.25427507 -26.125 23.4375 C-25.16194946 22.73113403 -25.16194946 22.73113403 -24.17944336 22.01049805 C-20.86380256 19.53258448 -17.87688683 16.98897333 -15 14 C-13.67565749 12.84378691 -12.34236348 11.69774099 -11 10.5625 C-7.9491082 7.92480876 -5.46792721 5.19916491 -3 2 C-1.515 1.01 -1.515 1.01 0 0 Z " fill="#F1203E" transform="translate(849,835)"/>
<path d="M0 0 C0.33 0 0.66 0 1 0 C1.04579349 56.81722138 1.08102737 113.63444093 1.10213066 170.45167715 C1.10462523 177.16187659 1.10721835 183.872076 1.10986328 190.58227539 C1.1101248 191.25000353 1.11038632 191.91773167 1.11065576 192.605694 C1.11917102 214.22966353 1.13418809 235.85362259 1.15259444 257.47758577 C1.17201869 280.33902552 1.18399705 303.20046067 1.18817699 326.06190866 C1.19091904 339.7506224 1.19957477 353.43930603 1.21583293 367.1280105 C1.22641766 376.51919227 1.22959725 385.91035851 1.22700275 395.30154581 C1.22572379 400.71696229 1.22766271 406.13232621 1.23841095 411.54773331 C1.24819389 416.51323073 1.24860236 421.47864058 1.24179779 426.44414216 C1.24095765 428.23309344 1.24345176 430.02205036 1.24976636 431.8109907 C1.38369456 472.12277435 -11.29111849 511.30471826 -38 542 C-38.99 542.66 -39.98 543.32 -41 544 C-40.41816623 540.62536411 -39.41727966 539.34316495 -37 537 C-21.81255179 519.23645298 -11.55740174 496.57892934 -6 474 C-5.74347656 473.05253906 -5.48695313 472.10507812 -5.22265625 471.12890625 C-1.10190494 455.03542476 -0.70053753 438.37816768 -0.7215271 421.85284424 C-0.71650803 420.01654371 -0.71062761 418.18024537 -0.70397437 416.34395003 C-0.68835506 411.36103135 -0.6847538 406.3781693 -0.68332577 401.3952291 C-0.6795997 395.99810454 -0.66442868 390.60100993 -0.65071106 385.2039032 C-0.62853422 375.87393769 -0.61346363 366.54398297 -0.60334396 357.21399689 C-0.58870251 343.72472826 -0.56315066 330.23549726 -0.53501268 316.74625084 C-0.48964355 294.85607176 -0.45298809 272.96588724 -0.421875 251.07568359 C-0.39164887 229.82274419 -0.35728003 208.56981808 -0.31738281 187.31689453 C-0.31492126 186.00488395 -0.31245972 184.69287337 -0.30992357 183.34110489 C-0.29754818 176.75854203 -0.2850918 170.17597932 -0.27259517 163.59341669 C-0.16917543 109.06229639 -0.07992355 54.53115946 0 0 Z " fill="#F10B35" transform="translate(892,290)"/>
<path d="M0 0 C1.65 0 3.3 0 5 0 C2.24492816 3.37651662 -1.52410977 4.82186984 -5.375 6.625 C-28.86422822 18.05384161 -46.1829926 35.8865582 -58 59 C-58.54398437 60.0621875 -59.08796875 61.124375 -59.6484375 62.21875 C-66.75483849 77.36945262 -70.29620593 94.30696956 -69 111 C-68.90460938 112.23878906 -68.80921875 113.47757812 -68.7109375 114.75390625 C-67.69814493 124.27614229 -65.19889933 133.02497938 -62 142 C-61.63003906 143.0621875 -61.26007813 144.124375 -60.87890625 145.21875 C-53.45835735 164.73299623 -38.58479316 178.57438802 -21 189 C-20.36529785 189.37721191 -19.7305957 189.75442383 -19.07666016 190.14306641 C-6.36546801 197.55391308 7.289606 202.75220001 21 208 C17.28085718 209.23971427 16.25662217 208.5565981 12.6875 207.125 C8.75782574 205.60517896 5.16656227 204.65787825 1 204 C0.67 203.34 0.34 202.68 0 202 C-2.52733235 201.34444881 -2.52733235 201.34444881 -5 201 C-5 200.34 -5 199.68 -5 199 C-6.32 199 -7.64 199 -9 199 C-9 198.34 -9 197.68 -9 197 C-9.886875 196.71125 -10.77375 196.4225 -11.6875 196.125 C-14.50382424 195.16851252 -17.25083156 194.13201054 -20 193 C-20 192.34 -20 191.68 -20 191 C-23.04913228 189.98888907 -23.04913228 189.98888907 -26 191 C-26 190.01 -26 189.02 -26 188 C-26.66 188 -27.32 188 -28 188 C-28 187.34 -28 186.68 -28 186 C-29.04220703 185.6596875 -29.04220703 185.6596875 -30.10546875 185.3125 C-33.63937608 183.71008048 -36.3933857 181.50572366 -39.3125 179 C-39.88500488 178.50943115 -40.45750977 178.0188623 -41.04736328 177.51342773 C-49.58131775 170.02845356 -55.87422249 161.12341057 -61 151 C-61 150.34 -61 149.68 -61 149 C-61.66 149 -62.32 149 -63 149 C-72.17572273 118.3900791 -72.17572273 118.3900791 -72.1875 103.5625 C-72.19974609 102.75490234 -72.21199219 101.94730469 -72.22460938 101.11523438 C-72.23764033 95.72476244 -71.45436288 91.18778485 -70 86 C-69.7525 84.14375 -69.7525 84.14375 -69.5 82.25 C-69.03447512 79.22408828 -68.36765217 77.65485422 -67 75 C-66.45364302 73.00092638 -65.98286871 70.98975998 -65.5078125 68.97265625 C-64.88426429 66.55041128 -64.00160409 64.28938078 -63 62 C-62.34 62 -61.68 62 -61 62 C-61 60.35 -61 58.7 -61 57 C-60.34 57 -59.68 57 -59 57 C-58.79375 56.195625 -58.5875 55.39125 -58.375 54.5625 C-55.47810258 47.05690214 -50.35531551 40.9100945 -45 35 C-44.08195579 33.96621284 -43.16399452 32.93235202 -42.24609375 31.8984375 C-41.24813203 30.78579758 -40.2494283 29.67382276 -39.25 28.5625 C-38.523573 27.74495239 -38.523573 27.74495239 -37.7824707 26.91088867 C-36.56293013 25.56855977 -35.28555217 24.27925045 -34 23 C-33.34 23 -32.68 23 -32 23 C-32 22.01 -32 21.02 -32 20 C-29.86328125 18.58984375 -29.86328125 18.58984375 -27 17 C-25.04896041 15.53873863 -23.11215948 14.05833627 -21.1875 12.5625 C-9.87774837 4 -9.87774837 4 -5 4 C-5 3.34 -5 2.68 -5 2 C-3.35 2 -1.7 2 0 2 C0 1.34 0 0.68 0 0 Z " fill="#AF25B2" transform="translate(448,233)"/>
<path d="M0 0 C18.02561313 0.05686313 18.02561313 0.05686313 20.1015625 2.1328125 C20.18841853 3.69453995 20.20858469 5.26010594 20.19921875 6.82421875 C20.19599609 7.76845703 20.19277344 8.71269531 20.18945312 9.68554688 C20.17688477 11.17538086 20.17688477 11.17538086 20.1640625 12.6953125 C20.15955078 13.69240234 20.15503906 14.68949219 20.15039062 15.71679688 C20.13856257 18.18886099 20.12208099 20.66080768 20.1015625 23.1328125 C20.762771 23.12757568 21.42397949 23.12233887 22.10522461 23.11694336 C25.08316101 23.09623594 28.06108232 23.08317238 31.0390625 23.0703125 C32.07998047 23.06193359 33.12089844 23.05355469 34.19335938 23.04492188 C35.18271484 23.04169922 36.17207031 23.03847656 37.19140625 23.03515625 C38.56607056 23.02730103 38.56607056 23.02730103 39.96850586 23.01928711 C42.1015625 23.1328125 42.1015625 23.1328125 43.1015625 24.1328125 C43.27921667 29.28478336 42.94790738 34.05474321 42.1015625 39.1328125 C41.7715625 39.1328125 41.4415625 39.1328125 41.1015625 39.1328125 C41.1015625 34.1828125 41.1015625 29.2328125 41.1015625 24.1328125 C33.5115625 24.1328125 25.9215625 24.1328125 18.1015625 24.1328125 C18.1015625 16.8728125 18.1015625 9.6128125 18.1015625 2.1328125 C11.8315625 2.1328125 5.5615625 2.1328125 -0.8984375 2.1328125 C-0.8984375 9.3928125 -0.8984375 16.6528125 -0.8984375 24.1328125 C-6.1784375 24.1328125 -11.4584375 24.1328125 -16.8984375 24.1328125 C-16.8984375 30.0728125 -16.8984375 36.0128125 -16.8984375 42.1328125 C-11.6184375 42.1328125 -6.3384375 42.1328125 -0.8984375 42.1328125 C-0.88385498 43.5647998 -0.86927246 44.99678711 -0.85424805 46.47216797 C-0.79596374 51.8212085 -0.71873345 57.16984129 -0.63598633 62.51855469 C-0.60287822 64.82675524 -0.57480306 67.135034 -0.55200195 69.44335938 C-0.51819567 72.77507639 -0.46586683 76.10608568 -0.41015625 79.4375 C-0.40376633 80.45770233 -0.3973764 81.47790466 -0.39079285 82.52902222 C-0.24267096 89.86442811 0.35047566 97.60780595 5.00390625 103.5703125 C5.67550781 104.0859375 6.34710937 104.6015625 7.0390625 105.1328125 C7.70808594 105.6690625 8.37710938 106.2053125 9.06640625 106.7578125 C11.01919348 108.07716203 12.96704269 109.13956838 15.1015625 110.1328125 C13.3515625 110.7890625 13.3515625 110.7890625 11.1015625 111.1328125 C5.38458682 108.36365241 1.47501489 103.93057405 -0.8984375 98.1328125 C-2.91070791 91.49427918 -3.16789055 85.08463305 -3.09375 78.19140625 C-3.0909201 77.18312271 -3.08809021 76.17483917 -3.08517456 75.13600159 C-3.07406927 71.94731267 -3.04898295 68.75891509 -3.0234375 65.5703125 C-3.01339522 63.39518638 -3.00427156 61.22005581 -2.99609375 59.04492188 C-2.97416166 53.7407877 -2.94078161 48.43682093 -2.8984375 43.1328125 C-4.6467688 43.2400061 -4.6467688 43.2400061 -6.43041992 43.34936523 C-7.97574466 43.44261253 -9.52107366 43.53578914 -11.06640625 43.62890625 C-12.21586731 43.6996637 -12.21586731 43.6996637 -13.3885498 43.77185059 C-18.57102906 44.08227037 -23.70542469 44.22082967 -28.8984375 44.1328125 C-30.2184375 44.1328125 -31.5384375 44.1328125 -32.8984375 44.1328125 C-32.5684375 43.4728125 -32.2384375 42.8128125 -31.8984375 42.1328125 C-28.2684375 42.1328125 -24.6384375 42.1328125 -20.8984375 42.1328125 C-20.8984375 35.5328125 -20.8984375 28.9328125 -20.8984375 22.1328125 C-29.43531882 22.843305 -29.43531882 22.843305 -37.8984375 24.1328125 C-36.875 22.6484375 -36.875 22.6484375 -34.8984375 21.1328125 C-32.26510474 20.88866244 -29.89530467 20.80395935 -27.2734375 20.8828125 C-26.23316406 20.89054688 -26.23316406 20.89054688 -25.171875 20.8984375 C-20.05282738 20.97842262 -20.05282738 20.97842262 -18.8984375 22.1328125 C-16.20607974 22.36959966 -13.53345594 22.55479275 -10.8359375 22.6953125 C-10.07732422 22.73849609 -9.31871094 22.78167969 -8.53710938 22.82617188 C-6.65778312 22.93254883 -4.77813506 23.03321184 -2.8984375 23.1328125 C-2.90367432 22.471604 -2.90891113 21.81039551 -2.91430664 21.12915039 C-2.93501406 18.15121399 -2.94807762 15.17329268 -2.9609375 12.1953125 C-2.96931641 11.15439453 -2.97769531 10.11347656 -2.98632812 9.04101562 C-2.98955078 8.05166016 -2.99277344 7.06230469 -2.99609375 6.04296875 C-3.00133057 5.12652588 -3.00656738 4.21008301 -3.01196289 3.26586914 C-2.86662298 0.53504166 -2.72871189 0.19089754 0 0 Z " fill="#E93672" transform="translate(612.8984375,666.8671875)"/>
<path d="M0 0 C39.22859814 -0.0228887 78.4571954 -0.0405096 117.68579888 -0.05106533 C122.31706255 -0.05231604 126.9483262 -0.05361036 131.57958984 -0.05493164 C132.50159132 -0.05519395 133.42359281 -0.05545626 134.37353373 -0.05572652 C149.3025741 -0.06007786 164.23161062 -0.06796248 179.1606487 -0.0771528 C194.47913519 -0.08650421 209.79761967 -0.09205877 225.11610889 -0.09408849 C234.56846384 -0.09546062 244.0208079 -0.09979448 253.47315949 -0.10791647 C259.95492569 -0.11320227 266.43668627 -0.11480011 272.91845447 -0.11350138 C276.65809508 -0.11286088 280.39771667 -0.11384304 284.1373539 -0.11920547 C288.19395799 -0.12497987 292.25052163 -0.1229866 296.30712891 -0.12025452 C297.4861292 -0.12316736 298.66512949 -0.1260802 299.87985706 -0.12908131 C305.68415015 -0.1185012 311.26068101 0.11855577 317 1 C317 1.33 317 1.66 317 2 C313.85463232 2.19594676 310.70869386 2.3803401 307.5625 2.5625 C306.21575195 2.64661133 306.21575195 2.64661133 304.84179688 2.73242188 C303.98779297 2.78076172 303.13378906 2.82910156 302.25390625 2.87890625 C301.46314697 2.9260376 300.6723877 2.97316895 299.85766602 3.02172852 C298 3 298 3 297 2 C295.41547238 1.89797943 293.82639475 1.86601464 292.2385931 1.8613348 C290.6837538 1.85312313 290.6837538 1.85312313 289.0975036 1.84474558 C287.3684554 1.84327842 287.3684554 1.84327842 285.60447693 1.84178162 C284.39080745 1.83684364 283.17713798 1.83190566 281.92669064 1.82681805 C278.54267355 1.81406044 275.15869805 1.80580358 271.77466643 1.79939139 C268.13114775 1.79141027 264.48765023 1.77770468 260.84414673 1.76467896 C254.52646482 1.74288362 248.2087808 1.72475036 241.89108086 1.70907402 C232.75664276 1.68640316 223.62222807 1.65825653 214.48780978 1.62875474 C199.66937374 1.58104461 184.85092815 1.53778974 170.0324707 1.49731445 C155.63402564 1.45797691 141.23558907 1.41655488 126.8371582 1.37231445 C125.95028324 1.36959018 125.06340828 1.36686591 124.14965831 1.36405908 C119.70065968 1.35037989 115.25166117 1.33665956 110.80266273 1.32291877 C73.86845945 1.20890028 36.93423805 1.10210284 0 1 C0 0.67 0 0.34 0 0 Z " fill="#A70093" transform="translate(428,132)"/>
<path d="M0 0 C5.70686352 0.53993978 10.24526186 2.11745873 15.4375 4.5 C16.21810791 4.85384766 16.99871582 5.20769531 17.80297852 5.57226562 C29.98611984 11.19657988 41.41945958 17.71325613 52 26 C52.85464844 26.65097656 53.70929687 27.30195313 54.58984375 27.97265625 C80.09829021 48.01233151 105.92055306 80.21810849 112 113 C111.57397461 115.29077148 111.57397461 115.29077148 111 117 C110.27083333 115.10416667 109.54166667 113.20833333 108.8125 111.3125 C108.35746094 110.13558594 107.90242187 108.95867187 107.43359375 107.74609375 C106.48658214 105.28694954 105.5678945 102.82210307 104.66015625 100.34765625 C104.23605469 99.20167969 103.81195312 98.05570312 103.375 96.875 C102.99085938 95.82054687 102.60671875 94.76609375 102.2109375 93.6796875 C101.03757679 91.08315379 99.98989048 89.94148774 98 88 C97.15625 85.87890625 97.15625 85.87890625 96.5 83.5625 C95.44921916 80.13217314 94.26767118 77.8075929 92 75 C92 74.01 92 73.02 92 72 C91.34 72 90.68 72 90 72 C89.54625 71.030625 89.0925 70.06125 88.625 69.0625 C87.34213779 65.92920418 87.34213779 65.92920418 85 65 C84.1594585 63.59052054 83.37511266 62.14711412 82.625 60.6875 C80.7334533 57.19033807 78.95288008 54.69233184 76 52 C74.88587722 50.73788597 73.78291198 49.46588726 72.6875 48.1875 C66.24639494 40.46711751 66.24639494 40.46711751 58 35 C58 34.34 58 33.68 58 33 C57.34 33 56.68 33 56 33 C56 32.34 56 31.68 56 31 C55.443125 30.731875 54.88625 30.46375 54.3125 30.1875 C50.87710021 28.42337578 47.74206894 26.74206894 45 24 C44.34 23.67 43.68 23.34 43 23 C43 22.34 43 21.68 43 21 C42.01 21 41.02 21 40 21 C40 20.34 40 19.68 40 19 C39.36191406 18.81824219 38.72382812 18.63648438 38.06640625 18.44921875 C37.24011719 18.19785156 36.41382813 17.94648438 35.5625 17.6875 C34.73878906 17.44386719 33.91507813 17.20023438 33.06640625 16.94921875 C32.38449219 16.63597656 31.70257812 16.32273438 31 16 C30.67 15.01 30.34 14.02 30 13 C28.02604477 12.25976679 26.01728138 11.61238899 24 11 C22.57636039 10.36968628 21.16010039 9.72254699 19.75 9.0625 C13.39738615 6.18665454 6.84294686 4.29821864 0 3 C0 2.01 0 1.02 0 0 Z " fill="#EA2062" transform="translate(775,140)"/>
<path d="M0 0 C0.66 0.33 1.32 0.66 2 1 C-6.49575662 10.57458285 -6.49575662 10.57458285 -10.5 14.4375 C-17.45397804 21.32693996 -23.13454724 28.6788909 -27.60546875 37.38671875 C-28.93203495 39.87263692 -30.38974581 42.12822074 -32 44.4375 C-37.38553185 52.33910709 -41.27204398 60.8576609 -44 70 C-44.33 70.94875 -44.66 71.8975 -45 72.875 C-46.19033447 76.59479523 -47.2084445 80.34892051 -48.21875 84.12109375 C-48.77311041 86.16391186 -49.38328185 88.19194848 -50.03125 90.20703125 C-51.44452758 95.74046889 -51.77020895 101.28824868 -52.2109375 106.96875 C-52.28570312 107.82984375 -52.36046875 108.6909375 -52.4375 109.578125 C-52.49808594 110.35575195 -52.55867187 111.13337891 -52.62109375 111.93457031 C-53 114 -53 114 -55 117 C-57.05306979 112.89386042 -55.47227986 107.44144042 -55 103 C-54.84917969 101.41445313 -54.84917969 101.41445313 -54.6953125 99.796875 C-52.79436017 83.42540804 -47.19682893 67.75444876 -40 53 C-39.69336426 52.36755371 -39.38672852 51.73510742 -39.07080078 51.08349609 C-29.44709033 31.51179256 -15.61701722 15.07329128 0 0 Z " fill="#8B2DCE" transform="translate(187,174)"/>
<path d="M0 0 C0.99 0.495 0.99 0.495 2 1 C-29.10776159 33.73786263 -67.37405259 53.94464356 -112.70703125 57.08203125 C-115.85085574 57.00371534 -117.40576623 56.69245982 -120 55 C-119.06800781 54.95101562 -118.13601563 54.90203125 -117.17578125 54.8515625 C-99.16563436 53.79535571 -79.08234789 51.66126894 -62.80859375 43.375 C-60 42 -60 42 -57 42 C-56.505 41.01 -56.505 41.01 -56 40 C-53.78515625 38.9296875 -53.78515625 38.9296875 -51.0625 37.875 C-50.16660156 37.52179687 -49.27070312 37.16859375 -48.34765625 36.8046875 C-46 36 -46 36 -44 36 C-44 35.34 -44 34.68 -44 34 C-43.17822266 33.65001953 -43.17822266 33.65001953 -42.33984375 33.29296875 C-36.4651981 30.58967653 -31.31680169 27.25427507 -26.125 23.4375 C-25.48296631 22.96658936 -24.84093262 22.49567871 -24.17944336 22.01049805 C-20.86380256 19.53258448 -17.87688683 16.98897333 -15 14 C-13.67565749 12.84378691 -12.34236348 11.69774099 -11 10.5625 C-7.9491082 7.92480876 -5.46792721 5.19916491 -3 2 C-2.01 1.34 -1.02 0.68 0 0 Z " fill="#F7484D" transform="translate(849,835)"/>
<path d="M0 0 C2.39038421 2.39038421 2.92142652 4.32626158 4.0625 7.5 C8.34333934 17.87854653 14.87622845 24.3279055 25.10546875 28.8828125 C38.98026443 34.2379968 54.20752119 33.11099162 68 28 C79.08545019 22.08330791 84.44298069 13.33893628 89 2 C90.44452199 6.33356598 89.513991 9.75178644 88 14 C85.8125 16.625 85.8125 16.625 83 19 C81.76455644 20.26473209 80.53563126 21.53585675 79.3125 22.8125 C77.55078125 24.64453125 77.55078125 24.64453125 76 26 C75.34 26 74.68 26 74 26 C74 26.66 74 27.32 74 28 C72.29347935 28.79556657 70.5846883 29.5862638 68.875 30.375 C67.92367187 30.81585937 66.97234375 31.25671875 65.9921875 31.7109375 C60.10979207 34.24512874 55.02812815 35.37018012 48.6875 35.6875 C47.95982422 35.73455078 47.23214844 35.78160156 46.48242188 35.83007812 C44.65701777 35.93385226 42.82814601 35.97258835 41 36 C40.67 35.67 40.34 35.34 40 35 C39.195625 35.061875 38.39125 35.12375 37.5625 35.1875 C32.55250325 34.92381596 28.55804231 32.979245 24 31 C23.19691406 30.731875 22.39382813 30.46375 21.56640625 30.1875 C18.19975868 28.62972091 15.68327289 26.38074386 13 23.875 C12.20662231 23.13902588 12.20662231 23.13902588 11.3972168 22.38818359 C6.25838759 17.49580763 1.68914365 12.35086562 1 5 C0.34 5 -0.32 5 -1 5 C-0.67 3.35 -0.34 1.7 0 0 Z " fill="#E83B76" transform="translate(438,746)"/>
<path d="M0 0 C6.27 0 12.54 0 19 0 C19 0.33 19 0.66 19 1 C13.06 1 7.12 1 1 1 C1.06892137 7.03271442 1.15691082 13.0647387 1.26245117 19.09692383 C1.29567083 21.14827816 1.32371197 23.19972325 1.34643555 25.2512207 C1.3800357 28.20302949 1.43235476 31.15400886 1.48828125 34.10546875 C1.49467117 35.02023483 1.5010611 35.93500092 1.50764465 36.87748718 C1.61854869 41.69883641 1.8151121 45.1132165 5 49 C8.00313748 50.50156874 10.79067522 50.09281204 14.125 50.0625 C15.40632812 50.05347656 16.68765625 50.04445313 18.0078125 50.03515625 C19.48894531 50.01775391 19.48894531 50.01775391 21 50 C23.52958084 55.5409866 25.33846988 61.14340094 27 67 C21.65184611 71.48088569 16.83710626 71.77662863 10 72 C9.236875 72.03996094 8.47375 72.07992187 7.6875 72.12109375 C3.65762017 72.25084367 0.61419137 71.80709568 -3 70 C-3 69.67 -3 69.34 -3 69 C-2.39526855 68.97494385 -1.79053711 68.9498877 -1.16748047 68.92407227 C1.5968562 68.80736994 4.36091366 68.68498266 7.125 68.5625 C8.07632813 68.52318359 9.02765625 68.48386719 10.0078125 68.44335938 C14.74628987 68.22946977 19.33594301 67.93438179 24 67 C23.7834375 66.16855469 23.566875 65.33710937 23.34375 64.48046875 C23.0653125 63.39378906 22.786875 62.30710937 22.5 61.1875 C22.08234375 59.56908203 22.08234375 59.56908203 21.65625 57.91796875 C21 55 21 55 21 52 C19.515 52.495 19.515 52.495 18 53 C13.10523751 53.39400565 8.55218457 53.60186749 3.9375 51.8125 C1.10756757 49.16514386 0.13338866 46.70368936 -0.17120361 42.81332397 C-0.23162287 40.09587717 -0.22458321 37.38593305 -0.1953125 34.66796875 C-0.1924826 33.67622147 -0.18965271 32.68447418 -0.18673706 31.66267395 C-0.17556804 28.50415841 -0.15046927 25.34592943 -0.125 22.1875 C-0.11496597 20.04232181 -0.10584086 17.89713917 -0.09765625 15.75195312 C-0.07563939 10.50119216 -0.0411319 5.25064462 0 0 Z " fill="#EB2A60" transform="translate(632,709)"/>
<path d="M0 0 C4.44322276 0.76787182 8.90464361 1.39954824 13.36914062 2.03051758 C17.00005018 2.70097028 19.90539157 3.87370915 23.18139648 5.54980469 C23.18139648 5.87980469 23.18139648 6.20980469 23.18139648 6.54980469 C16.24854706 5.78037862 9.51184097 4.45106917 2.69116211 3.01074219 C1.43529297 2.75164062 1.43529297 2.75164062 0.15405273 2.48730469 C-0.95570923 2.25333984 -0.95570923 2.25333984 -2.08789062 2.01464844 C-9.52626889 0.7484283 -16.88729876 0.37110091 -24.42407227 0.31152344 C-25.42457108 0.30345169 -26.42506989 0.29537994 -27.45588684 0.2870636 C-29.56953237 0.2732987 -31.68319943 0.26254298 -33.796875 0.25463867 C-35.91315443 0.24320803 -38.02940713 0.22290093 -40.14550781 0.19311523 C-54.39158681 -0.00665352 -67.64034375 1.11970918 -81.57827759 4.09732056 C-84.64573274 4.71686201 -87.71560629 5.14895159 -90.81860352 5.54980469 C-90.15860352 5.21980469 -89.49860352 4.88980469 -88.81860352 4.54980469 C-88.81860352 3.88980469 -88.81860352 3.22980469 -88.81860352 2.54980469 C-85.19468787 1.89778986 -81.56929681 1.25435454 -77.94360352 0.61230469 C-76.93040039 0.42990234 -75.91719727 0.2475 -74.87329102 0.05957031 C-49.80550713 -4.35943005 -25.02397444 -4.45201015 0 0 Z " fill="#C52CA3" transform="translate(550.818603515625,225.4501953125)"/>
<path d="M0 0 C1.48892909 2.97785818 2.21213999 5.39959325 2.6875 8.6875 C2.83703125 9.66332031 2.9865625 10.63914062 3.140625 11.64453125 C3.28757812 12.74861328 3.28757812 12.74861328 3.4375 13.875 C4.0975 13.875 4.7575 13.875 5.4375 13.875 C5.94221197 15.64449612 6.44110685 17.41565223 6.9375 19.1875 C7.2159375 20.17363281 7.494375 21.15976562 7.78125 22.17578125 C8.4375 24.875 8.4375 24.875 8.4375 27.875 C9.0975 28.205 9.7575 28.535 10.4375 28.875 C11.16256888 30.84765704 11.79299222 32.85550312 12.375 34.875 C13.95788421 40.24971878 15.63495843 45.5707057 17.4375 50.875 C17.7675 51.865 18.0975 52.855 18.4375 53.875 C21.07345772 51.23904228 21.51452112 48.81312819 22.5625 45.25 C22.91570313 44.06148437 23.26890625 42.87296875 23.6328125 41.6484375 C24.03113281 40.27558594 24.03113281 40.27558594 24.4375 38.875 C25.90180956 41.20479604 26.50511232 42.39671674 26.11376953 45.16503906 C25.85192871 45.98198242 25.59008789 46.79892578 25.3203125 47.640625 C25.04316406 48.53007813 24.76601563 49.41953125 24.48046875 50.3359375 C24.17753906 51.25632812 23.87460937 52.17671875 23.5625 53.125 C23.26730469 54.06085937 22.97210937 54.99671875 22.66796875 55.9609375 C21.93750749 58.27013762 21.19368429 60.57412074 20.4375 62.875 C19.7775 62.875 19.1175 62.875 18.4375 62.875 C18.24752441 62.26430664 18.05754883 61.65361328 17.86181641 61.02441406 C12.8206118 44.88657569 7.3573539 28.95394965 1.5690918 13.0703125 C0.13629274 9.02447129 -1.20523274 4.94680178 -2.5625 0.875 C-9.1625 0.545 -15.7625 0.215 -22.5625 -0.125 C-22.5625 -0.455 -22.5625 -0.785 -22.5625 -1.125 C-19.31514401 -1.43855324 -16.06574669 -1.69328245 -12.8125 -1.9375 C-11.89210938 -2.02708984 -10.97171875 -2.11667969 -10.0234375 -2.20898438 C-3.22789777 -2.67679327 -3.22789777 -2.67679327 0 0 Z " fill="#F03E66" transform="translate(720.5625,692.125)"/>
<path d="M0 0 C2 2 2 2 2.15234375 4.66796875 C0.6680033 28.98416405 -6.53723242 51.65080134 -18 73 C-18.31694824 73.60440918 -18.63389648 74.20881836 -18.96044922 74.83154297 C-24.06150814 84.52329048 -30.68916707 96.79277805 -40 103 C-39.41816623 99.62536411 -38.41727966 98.34316495 -36 96 C-20.81255179 78.23645298 -10.55740174 55.57892934 -5 33 C-4.74347656 32.05253906 -4.48695313 31.10507812 -4.22265625 30.12890625 C-1.68281873 20.20964033 -0.8621776 10.17369572 0 0 Z " fill="#F74952" transform="translate(891,731)"/>
<path d="M0 0 C2.64647813 2.40084693 4.30172204 5.00168314 6.125 8.0625 C9.85024822 13.99009623 14.10176525 19.01226262 19 24 C19.71414063 24.73863281 20.42828125 25.47726562 21.1640625 26.23828125 C37.8689494 42.39781961 60.74838837 50.71041031 82 59 C78.28085718 60.23971427 77.25662217 59.5565981 73.6875 58.125 C69.75782574 56.60517896 66.16656227 55.65787825 62 55 C61.67 54.34 61.34 53.68 61 53 C58.47266765 52.34444881 58.47266765 52.34444881 56 52 C56 51.34 56 50.68 56 50 C54.68 50 53.36 50 52 50 C52 49.34 52 48.68 52 48 C51.113125 47.71125 50.22625 47.4225 49.3125 47.125 C46.49617576 46.16851252 43.74916844 45.13201054 41 44 C41 43.34 41 42.68 41 42 C37.95086772 40.98888907 37.95086772 40.98888907 35 42 C35 41.01 35 40.02 35 39 C34.34 39 33.68 39 33 39 C33 38.34 33 37.68 33 37 C32.30519531 36.773125 31.61039062 36.54625 30.89453125 36.3125 C27.36062392 34.71008048 24.6066143 32.50572366 21.6875 30 C21.11499512 29.50943115 20.54249023 29.0188623 19.95263672 28.51342773 C11.41868225 21.02845356 5.12577751 12.12341057 0 2 C0 1.34 0 0.68 0 0 Z " fill="#BB22A5" transform="translate(387,382)"/>
<path d="M0 0 C5.31804978 1.40771906 8.03752239 4.58586603 11 9 C14.49796752 16.41316278 15.64859038 23.39485577 15.86328125 31.51953125 C15.90438522 32.58056564 15.9454892 33.64160004 15.98783875 34.73478699 C16.07070664 36.96392613 16.14504584 39.19339742 16.21118164 41.4230957 C16.3119508 44.79412757 16.43978902 48.16328328 16.57226562 51.53320312 C17.41424081 74.55449343 17.41424081 74.55449343 16 84 C15 85 15 85 12.95874023 85.11352539 C12.08419189 85.10828857 11.20964355 85.10305176 10.30859375 85.09765625 C9.36435547 85.09443359 8.42011719 85.09121094 7.44726562 85.08789062 C6.45404297 85.07951172 5.46082031 85.07113281 4.4375 85.0625 C3.44041016 85.05798828 2.44332031 85.05347656 1.41601562 85.04882812 C-1.05604849 85.03700007 -3.52799518 85.02051849 -6 85 C-6 84.67 -6 84.34 -6 84 C0.6 84 7.2 84 14 84 C13.95941388 76.27079412 13.90194619 68.5421351 13.81609726 60.81332111 C13.77686511 57.22310577 13.74455971 53.63312679 13.72900391 50.04272461 C13.71367473 46.56700401 13.67895051 43.09193432 13.63169098 39.61650658 C13.60999418 37.66886244 13.60754034 35.72103372 13.60565186 33.77326965 C13.43474283 23.1965937 12.15902202 12.24504642 4.46484375 4.3671875 C3.98144531 3.91601562 3.49804688 3.46484375 3 3 C1.99883924 2.00116211 0.99851742 1.00148038 0 0 Z " fill="#E22A73" transform="translate(411,693)"/>
<path d="M0 0 C0.66 0 1.32 0 2 0 C3.48046875 1.50390625 3.48046875 1.50390625 5.1875 3.5625 C13.78725207 13.62791824 23.53084675 22.3096606 35 29 C36.48308453 29.88933215 37.96231448 30.78512588 39.4375 31.6875 C40.09621094 32.08324219 40.75492188 32.47898437 41.43359375 32.88671875 C43 34 43 34 44 36 C45.32 36 46.64 36 48 36 C49 37 50 38 51 39 C54.10007201 40.20049407 54.10007201 40.20049407 57 41 C57 41.66 57 42.32 57 43 C58.093125 43.144375 59.18625 43.28875 60.3125 43.4375 C64 44 64 44 67 45 C67 45.66 67 46.32 67 47 C69.64 47 72.28 47 75 47 C75 47.66 75 48.32 75 49 C75.99 49 76.98 49 78 49 C78 49.66 78 50.32 78 51 C79.485 51.495 79.485 51.495 81 52 C75.17575284 51.48055767 70.42219142 50.30092266 65.0625 48 C64.33160156 47.69022217 63.60070312 47.38044434 62.84765625 47.0612793 C42.47710621 38.24726669 24.84656278 26.53971371 9 11 C8.16082031 10.19949219 7.32164062 9.39898438 6.45703125 8.57421875 C1.14323824 3.42971472 1.14323824 3.42971472 0 0 Z " fill="#E53773" transform="translate(172,833)"/>
<path d="M0 0 C14.72558436 -0.02339725 29.45116625 -0.04101265 44.17676544 -0.05181217 C51.01465986 -0.05696065 57.8525427 -0.06397567 64.69042969 -0.07543945 C71.29103061 -0.08650012 77.89162269 -0.09228688 84.49223328 -0.09487724 C87.00876555 -0.09672296 89.52529719 -0.10032717 92.04182434 -0.10573006 C95.57021499 -0.11300316 99.09855617 -0.11398829 102.62695312 -0.11352539 C103.66417511 -0.11712067 104.70139709 -0.12071594 105.77005005 -0.12442017 C111.27635642 -0.11661844 116.55284995 0.18371086 122 1 C122 1.33 122 1.66 122 2 C118.85463232 2.19594676 115.70869386 2.3803401 112.5625 2.5625 C111.21575195 2.64661133 111.21575195 2.64661133 109.84179688 2.73242188 C108.98779297 2.78076172 108.13378906 2.82910156 107.25390625 2.87890625 C106.46314697 2.9260376 105.6723877 2.97316895 104.85766602 3.02172852 C103 3 103 3 102 2 C98.83457207 1.87455974 95.68992964 1.8138594 92.52319336 1.79467773 C91.52818314 1.78477814 90.53317291 1.77487854 89.50801086 1.76467896 C86.20197979 1.7329596 82.89593433 1.70826545 79.58984375 1.68359375 C77.30440384 1.66303322 75.01896782 1.642037 72.73353577 1.62062073 C66.70505914 1.56530693 60.67654767 1.51593884 54.64801025 1.46777344 C48.50163658 1.41762619 42.35531379 1.36190484 36.20898438 1.30664062 C24.13936633 1.19894528 12.0697042 1.09752574 0 1 C0 0.67 0 0.34 0 0 Z " fill="#C60074" transform="translate(623,132)"/>
<path d="M0 0 C5.70686352 0.53993978 10.24526186 2.11745873 15.4375 4.5 C16.21810791 4.85384766 16.99871582 5.20769531 17.80297852 5.57226562 C34.08826902 13.09032596 48.11004912 22.67110297 62 34 C61.34 34.66 60.68 35.32 60 36 C59.01 35.505 59.01 35.505 58 35 C58 34.34 58 33.68 58 33 C57.34 33 56.68 33 56 33 C56 32.34 56 31.68 56 31 C55.443125 30.731875 54.88625 30.46375 54.3125 30.1875 C50.87710021 28.42337578 47.74206894 26.74206894 45 24 C44.34 23.67 43.68 23.34 43 23 C43 22.34 43 21.68 43 21 C42.01 21 41.02 21 40 21 C40 20.34 40 19.68 40 19 C39.36191406 18.81824219 38.72382812 18.63648438 38.06640625 18.44921875 C37.24011719 18.19785156 36.41382813 17.94648438 35.5625 17.6875 C34.73878906 17.44386719 33.91507813 17.20023438 33.06640625 16.94921875 C32.38449219 16.63597656 31.70257812 16.32273438 31 16 C30.67 15.01 30.34 14.02 30 13 C28.02604477 12.25976679 26.01728138 11.61238899 24 11 C22.57636039 10.36968628 21.16010039 9.72254699 19.75 9.0625 C13.39738615 6.18665454 6.84294686 4.29821864 0 3 C0 2.01 0 1.02 0 0 Z " fill="#E61F6C" transform="translate(775,140)"/>
<path d="M0 0 C1.15691156 2.52620301 1.09500514 3.71164269 0.22265625 6.359375 C-0.35162109 7.54273438 -0.35162109 7.54273438 -0.9375 8.75 C-1.50791016 9.94882812 -1.50791016 9.94882812 -2.08984375 11.171875 C-2.39019531 11.77515625 -2.69054687 12.3784375 -3 13 C-3.66 13 -4.32 13 -5 13 C-4.52309796 11.37433394 -4.04340334 9.74948689 -3.5625 8.125 C-3.29566406 7.22007812 -3.02882813 6.31515625 -2.75390625 5.3828125 C-2 3 -2 3 -1 1 C-10.9 1.495 -10.9 1.495 -21 2 C-21.91523437 4.86429688 -22.83046875 7.72859375 -23.7734375 10.6796875 C-24.66226763 13.4469275 -25.55319773 16.21348301 -26.44433594 18.97998047 C-27.06340038 20.90570612 -27.680273 22.8321378 -28.29492188 24.75927734 C-29.17786055 27.52629321 -30.06860381 30.29068933 -30.9609375 33.0546875 C-31.23497406 33.9193161 -31.50901062 34.7839447 -31.79135132 35.67477417 C-32.05147003 36.47545319 -32.31158875 37.2761322 -32.57958984 38.10107422 C-32.80609222 38.8072287 -33.0325946 39.51338318 -33.26596069 40.24093628 C-34 42 -34 42 -36 44 C-35.74952268 36.98663497 -33.7706048 31.32985866 -31.22631836 24.88037109 C-29.82848161 21.30826167 -28.62535054 17.91492163 -27.9375 14.125 C-26.98961502 8.96651017 -24.49699679 4.56512008 -22 0 C-18.89635771 -0.19696449 -15.79207808 -0.38093262 -12.6875 -0.5625 C-11.36588867 -0.64661133 -11.36588867 -0.64661133 -10.01757812 -0.73242188 C-8.74624023 -0.80493164 -8.74624023 -0.80493164 -7.44921875 -0.87890625 C-6.27879028 -0.94960327 -6.27879028 -0.94960327 -5.0847168 -1.02172852 C-3 -1 -3 -1 0 0 Z " fill="#F13D66" transform="translate(782,690)"/>
<path d="M0 0 C0 0.33 0 0.66 0 1 C-14.57522532 2.07537894 -14.57522532 2.07537894 -20.125 2 C-23.3624551 2 -25.88588909 2.26244742 -29 3 C-30.7015625 3.2165625 -30.7015625 3.2165625 -32.4375 3.4375 C-35.91780051 3.8869757 -35.91780051 3.8869757 -38.8125 4.9375 C-42.38689211 6.12896404 -45.9353622 6.83828478 -49.6328125 7.53515625 C-51.98995162 7.95304467 -51.98995162 7.95304467 -54.1796875 8.68359375 C-54.78039062 8.78800781 -55.38109375 8.89242187 -56 9 C-56.66 8.34 -57.32 7.68 -58 7 C-38.04407337 1.47070246 -20.73477193 -1.55773921 0 0 Z " fill="#9337D1" transform="translate(302,133)"/>
<path d="M0 0 C0.79921875 0.00902344 1.5984375 0.01804687 2.421875 0.02734375 C3.02515625 0.03894531 3.6284375 0.05054688 4.25 0.0625 C4.25 0.3925 4.25 0.7225 4.25 1.0625 C3.34121094 1.20945312 3.34121094 1.20945312 2.4140625 1.359375 C-8.80667359 3.36184483 -21.63757324 7.40085301 -28.8125 16.75 C-32.38624098 22.85994426 -35.10209982 27.84445372 -34.75 35.0625 C-35.41 35.7225 -36.07 36.3825 -36.75 37.0625 C-38.46985673 30.46971589 -36.85539465 26.02074215 -33.75 20.0625 C-27.16514717 9.37157515 -18.60336642 4.07997705 -6.68359375 0.4296875 C-4.41725944 -0.0006871 -2.30520675 -0.0339001 0 0 Z " fill="#BF27A7" transform="translate(494.75,292.9375)"/>
<path d="M0 0 C2.35273482 2.57680481 3.26600892 4.82343565 4.125 8.125 C6.03951448 14.26570337 10.22736638 18.80610767 15 23 C17.65379338 24.28977026 17.65379338 24.28977026 20 25 C20 25.66 20 26.32 20 27 C21.1446875 27.3403125 21.1446875 27.3403125 22.3125 27.6875 C25.4056089 28.78843706 28.22997716 30.03076994 31.1875 31.4375 C36.65084348 33.97405233 42.15091237 35.60843757 48 37 C48 37.66 48 38.32 48 39 C48.99 39.495 48.99 39.495 50 40 C41.02145451 38.55701948 33.16310372 34.85056006 25 31 C23.95714844 30.51273437 22.91429687 30.02546875 21.83984375 29.5234375 C11.83172536 24.48418802 5.24962 17.87791272 0.77734375 7.578125 C-0.02696472 4.91056927 -0.15438816 2.76902637 0 0 Z " fill="#BE1B9E" transform="translate(458,336)"/>
<path d="M0 0 C8.92239428 2.23059857 15.71729104 8.69440005 21 16 C22.87542122 19.24973783 24.50220149 22.56123413 26 26 C26.35449219 26.80050781 26.70898438 27.60101562 27.07421875 28.42578125 C29.11124129 34.08990723 29.08230509 39.34414858 28.6875 45.25 C28.63432617 46.32894531 28.63432617 46.32894531 28.58007812 47.4296875 C28.24606643 52.75393357 28.24606643 52.75393357 26 55 C25.9906543 54.3608667 25.98130859 53.7217334 25.97167969 53.06323242 C25.67383618 36.87018175 25.08810787 23.73721981 14 11 C9.68998922 7.07441557 5.03517585 3.92365049 0 1 C0 0.67 0 0.34 0 0 Z " fill="#E32C73" transform="translate(502,691)"/>
<path d="M0 0 C6.93 0 13.86 0 21 0 C21 0.33 21 0.66 21 1 C14.4 1.33 7.8 1.66 1 2 C1.74765625 4.03800781 2.4953125 6.07601562 3.265625 8.17578125 C4.0037801 10.188219 4.74188266 12.20067601 5.47998047 14.21313477 C5.98611068 15.59303764 6.49229399 16.97292103 6.99853516 18.3527832 C7.24265137 19.01818115 7.48676758 19.6835791 7.73828125 20.36914062 C7.98114868 21.03082245 8.22401611 21.69250427 8.47424316 22.37423706 C8.9591324 23.69745033 9.44278072 25.021119 9.9251709 26.34524536 C11.02083728 29.35041151 12.13375789 32.34601482 13.28710938 35.32958984 C13.66158203 36.30750488 14.03605469 37.28541992 14.421875 38.29296875 C14.7528418 39.13754639 15.08380859 39.98212402 15.42480469 40.85229492 C16 43 16 43 15 46 C11.62545017 39.22422406 9.2299768 32.75412238 7.67578125 25.3359375 C7.45277344 24.56507813 7.22976563 23.79421875 7 23 C6.34 22.67 5.68 22.34 5 22 C4.25390625 20.25 4.25390625 20.25 3.5625 18 C2.78331225 15.4946117 2.0031945 13.00877442 1.10546875 10.54296875 C0.82316406 9.76566406 0.54085937 8.98835937 0.25 8.1875 C-0.01296875 7.47980469 -0.2759375 6.77210938 -0.546875 6.04296875 C-1 4 -1 4 0 0 Z " fill="#ED3263" transform="translate(697,690)"/>
<path d="M0 0 C1.49609225 0.00502697 2.99218613 0.00958775 4.48828125 0.01367188 C8.11722219 0.02457815 11.74610027 0.04177618 15.375 0.0625 C15.375 0.3925 15.375 0.7225 15.375 1.0625 C14.68164551 1.08231934 13.98829102 1.10213867 13.27392578 1.12255859 C-5.12957716 1.67323375 -23.00972954 2.75850499 -41.07421875 6.37890625 C-44.58734734 7.05525114 -48.08062038 7.58475949 -51.625 8.0625 C-50.965 7.7325 -50.305 7.4025 -49.625 7.0625 C-49.625 6.4025 -49.625 5.7425 -49.625 5.0625 C-46.00108435 4.41048517 -42.3756933 3.76704985 -38.75 3.125 C-37.73679687 2.94259766 -36.72359375 2.76019531 -35.6796875 2.57226562 C-23.70446895 0.46124953 -12.13318053 -0.07140335 0 0 Z " fill="#B719A5" transform="translate(511.625,222.9375)"/>
<path d="M0 0 C4.48996796 1.34631723 8.2525552 3.17185304 12.3125 5.5 C23.02236535 11.45665004 34.58542306 15.61029919 46 20 C42.28085718 21.23971427 41.25662217 20.5565981 37.6875 19.125 C33.75782574 17.60517896 30.16656227 16.65787825 26 16 C25.67 15.34 25.34 14.68 25 14 C22.47266765 13.34444881 22.47266765 13.34444881 20 13 C20 12.34 20 11.68 20 11 C18.68 11 17.36 11 16 11 C16 10.34 16 9.68 16 9 C15.113125 8.71125 14.22625 8.4225 13.3125 8.125 C10.49617576 7.16851252 7.74916844 6.13201054 5 5 C5 4.34 5 3.68 5 3 C2.525 2.01 2.525 2.01 0 1 C0 0.67 0 0.34 0 0 Z " fill="#C21F9C" transform="translate(423,421)"/>
<path d="M0 0 C-2.79375441 2.79375441 -5.86521824 2.93483395 -9.625 3.5625 C-10.37612061 3.69035889 -11.12724121 3.81821777 -11.90112305 3.94995117 C-33.67601505 7.47333023 -33.67601505 7.47333023 -39 4 C-37.60201172 3.92652344 -37.60201172 3.92652344 -36.17578125 3.8515625 C-21.36727099 3.02529853 -21.36727099 3.02529853 -6.9375 -0.1875 C-4.04982549 -0.98621848 -2.74193222 -1.09677289 0 0 Z " fill="#F85157" transform="translate(768,886)"/>
<path d="M0 0 C0.33 0 0.66 0 1 0 C1.08636719 0.8971875 1.17273438 1.794375 1.26171875 2.71875 C2.2295672 11.31395455 4.0299081 19.147993 6.78125 27.34375 C7.95914975 30.87744925 9.00149302 34.41277122 10 38 C9.01 38 8.02 38 7 38 C-0.90625 11.625 -0.90625 11.625 -2 2 C-1.34 2 -0.68 2 0 2 C0 1.34 0 0.68 0 0 Z " fill="#B221AD" transform="translate(378,344)"/>
<path d="M0 0 C1 3 1 3 0.25 5.19921875 C-3.70928091 13.08066231 -8.74434793 21.17793886 -17 25 C-29.15205349 27.05065903 -29.15205349 27.05065903 -34 24 C-33.23816406 23.97421875 -32.47632813 23.9484375 -31.69140625 23.921875 C-22.34122242 23.40825691 -14.9712934 21.50581885 -8 15 C-6.35218503 12.51722662 -5.01494962 9.91497475 -3.6875 7.25 C-3.32849609 6.55261719 -2.96949219 5.85523438 -2.59960938 5.13671875 C-1.72274057 3.42974748 -0.85991985 1.71557211 0 0 Z " fill="#F43D57" transform="translate(746,788)"/>
<path d="M0 0 C4.202207 1.42357375 7.10597801 3.47620353 10.5 6.3125 C11.4178125 7.07175781 12.335625 7.83101563 13.28125 8.61328125 C17.77296731 12.55644113 21.6509801 16.61497286 25.1875 21.4375 C25.86167969 22.34371094 26.53585937 23.24992187 27.23046875 24.18359375 C29.0428209 27.06815424 30.06276159 29.73648778 31 33 C28.43407537 30.62068807 26.57297298 28.02492357 24.625 25.125 C22.60263355 22.17947264 20.65299527 19.46502969 18.0625 17 C17.0415625 16.01 17.0415625 16.01 16 15 C16 14.34 16 13.68 16 13 C15.4225 12.73960937 14.845 12.47921875 14.25 12.2109375 C11.84310157 10.91555814 10.03485454 9.44524098 8 7.625 C7.3090625 7.00753906 6.618125 6.39007813 5.90625 5.75390625 C3.87974006 3.889351 1.90725053 1.9867193 0 0 Z " fill="#D72688" transform="translate(611,417)"/>
<path d="M0 0 C0.66 0.66 1.32 1.32 2 2 C-2.83708558 5.83630925 -8.07912712 5.73426657 -14 6 C-15.14662109 6.061875 -15.14662109 6.061875 -16.31640625 6.125 C-20.34452623 6.24729586 -23.38696457 5.80651772 -27 4 C-27 3.67 -27 3.34 -27 3 C-26.39526855 2.98018066 -25.79053711 2.96036133 -25.16748047 2.93994141 C-22.40291491 2.84413701 -19.63904826 2.73468445 -16.875 2.625 C-15.44800781 2.57859375 -15.44800781 2.57859375 -13.9921875 2.53125 C-8.98289652 2.32252954 -4.69633387 1.94494635 0 0 Z " fill="#F04970" transform="translate(656,775)"/>
<path d="M0 0 C1.10248378 3.30745133 0.89868524 4.20735301 0.0390625 7.47265625 C-0.18499268 8.36452637 -0.40904785 9.25639648 -0.63989258 10.17529297 C-1.00377075 11.60446045 -1.00377075 11.60446045 -1.375 13.0625 C-3.81492366 23.09283605 -4.86010098 32.69834464 -5 43 C-5.33 43 -5.66 43 -6 43 C-6.2237569 40.00044803 -6.42935249 37.00141072 -6.625 34 C-6.68945312 33.16082031 -6.75390625 32.32164062 -6.8203125 31.45703125 C-7.16976201 25.82215785 -6.57965069 21.41678726 -5 16 C-4.87625 14.865625 -4.7525 13.73125 -4.625 12.5625 C-3.82173635 7.98389719 -2.02659395 4.15687411 0 0 Z " fill="#AB1EB0" transform="translate(383,303)"/>
<path d="M0 0 C-2 2 -2 2 -3.84765625 2.24291992 C-4.57855469 2.23881104 -5.30945313 2.23470215 -6.0625 2.23046875 C-6.85914063 2.22853516 -7.65578125 2.22660156 -8.4765625 2.22460938 C-9.30929687 2.21236328 -10.14203125 2.20011719 -11 2.1875 C-11.83273437 2.18685547 -12.66546875 2.18621094 -13.5234375 2.18554688 C-19.71913485 2.14043257 -19.71913485 2.14043257 -22 1 C-22 0.34 -22 -0.32 -22 -1 C-18.70926338 -1.22531972 -15.41750581 -1.42735982 -12.125 -1.625 C-10.71927734 -1.72167969 -10.71927734 -1.72167969 -9.28515625 -1.8203125 C-8.38925781 -1.871875 -7.49335937 -1.9234375 -6.5703125 -1.9765625 C-5.74289551 -2.02893066 -4.91547852 -2.08129883 -4.06298828 -2.13525391 C-2 -2 -2 -2 0 0 Z " fill="#F15374" transform="translate(690,777)"/>
<path d="M0 0 C1.48892909 2.97785818 2.21213999 5.39959325 2.6875 8.6875 C2.83703125 9.66332031 2.9865625 10.63914062 3.140625 11.64453125 C3.28757812 12.74861328 3.28757812 12.74861328 3.4375 13.875 C4.0975 13.875 4.7575 13.875 5.4375 13.875 C5.7675 15.195 6.0975 16.515 6.4375 17.875 C5.4475 17.875 4.4575 17.875 3.4375 17.875 C1.4575 12.265 -0.5225 6.655 -2.5625 0.875 C-9.1625 0.545 -15.7625 0.215 -22.5625 -0.125 C-22.5625 -0.455 -22.5625 -0.785 -22.5625 -1.125 C-19.31514401 -1.43855324 -16.06574669 -1.69328245 -12.8125 -1.9375 C-11.89210938 -2.02708984 -10.97171875 -2.11667969 -10.0234375 -2.20898438 C-3.22789777 -2.67679327 -3.22789777 -2.67679327 0 0 Z " fill="#F05F84" transform="translate(720.5625,692.125)"/>
<path d="M0 0 C10.44713675 -0.37534623 20.64511186 0.78687503 31 2 C24.07158354 5.92632943 15.92278324 3.86768138 8.4375 2.5 C7.61958984 2.35691406 6.80167969 2.21382812 5.95898438 2.06640625 C3.97145496 1.71771688 1.98554104 1.35983915 0 1 C0 0.67 0 0.34 0 0 Z " fill="#ED4371" transform="translate(266,888)"/>
<path d="M0 0 C0.33 0 0.66 0 1 0 C3.70953548 10.23333488 3.16045942 18.67994829 1 29 C0.67 29 0.34 29 0 29 C0 19.43 0 9.86 0 0 Z " fill="#DE297F" transform="translate(651,479)"/>
<path d="M0 0 C4.69563418 -0.02488717 9.39122919 -0.04294796 14.08691406 -0.05493164 C15.68132192 -0.05993231 17.27572525 -0.06673501 18.87011719 -0.07543945 C21.17383954 -0.0876933 23.47750078 -0.0932711 25.78125 -0.09765625 C26.48366821 -0.10281754 27.18608643 -0.10797882 27.90979004 -0.11329651 C32.68720941 -0.11382708 37.26878694 0.32974482 42 1 C42 1.33 42 1.66 42 2 C38.85463232 2.19594676 35.70869386 2.3803401 32.5625 2.5625 C31.66466797 2.61857422 30.76683594 2.67464844 29.84179688 2.73242188 C28.98779297 2.78076172 28.13378906 2.82910156 27.25390625 2.87890625 C26.46314697 2.9260376 25.6723877 2.97316895 24.85766602 3.02172852 C23 3 23 3 22 2 C20.36743242 1.84285346 18.72864662 1.74914586 17.08984375 1.68359375 C16.10048828 1.64169922 15.11113281 1.59980469 14.09179688 1.55664062 C13.05087891 1.51732422 12.00996094 1.47800781 10.9375 1.4375 C9.37032227 1.37272461 9.37032227 1.37272461 7.77148438 1.30664062 C5.18113116 1.20018775 2.59067814 1.0981724 0 1 C0 0.67 0 0.34 0 0 Z " fill="#D70E72" transform="translate(703,132)"/>
<path d="M0 0 C0 0.66 0 1.32 0 2 C-1.64453125 3.40234375 -1.64453125 3.40234375 -3.8125 4.9375 C-9.145091 8.73539268 -12.35412327 11.64144099 -13.625 18.25 C-13.74875 19.1575 -13.8725 20.065 -14 21 C-14.66 21 -15.32 21 -16 21 C-15.50911417 13.14582679 -12.19606966 7.74142925 -6.375 2.5 C-3.8793259 0.37698312 -3.40911306 0 0 0 Z " fill="#E73372" transform="translate(579,711)"/>
<path d="M0 0 C1.6396875 0.2475 1.6396875 0.2475 3.3125 0.5 C6.87525873 1.06718184 6.87525873 1.06718184 10 1 C10 1.66 10 2.32 10 3 C11.0725 2.95875 12.145 2.9175 13.25 2.875 C16.7823954 2.99274651 18.08010025 3.28833463 21 5 C22.3242287 5.36784131 23.65613912 5.71202981 25 6 C25 6.66 25 7.32 25 8 C19.52172413 7.35336001 14.41043586 6.12534871 9.125 4.5625 C8.35414063 4.34529297 7.58328125 4.12808594 6.7890625 3.90429688 C4.83968071 3.33286718 2.91664173 2.67313129 1 2 C0.67 1.34 0.34 0.68 0 0 Z " fill="#CB279A" transform="translate(515,378)"/>
<path d="M0 0 C1.18414294 3.55242882 0.69535532 4.69830562 -0.4375 8.1875 C-0.72496094 9.08855469 -1.01242187 9.98960937 -1.30859375 10.91796875 C-1.53675781 11.60503906 -1.76492188 12.29210937 -2 13 C-2.66 13 -3.32 13 -4 13 C-4.28875 13.886875 -4.5775 14.77375 -4.875 15.6875 C-5.24625 16.780625 -5.6175 17.87375 -6 19 C-6.28875 19.9075 -6.5775 20.815 -6.875 21.75 C-8.22500804 24.45001607 -9.31579741 24.80460614 -12 26 C-11.46890625 24.87722656 -10.9378125 23.75445313 -10.390625 22.59765625 C-6.84890824 15.0982886 -3.31730457 7.60215631 0 0 Z " fill="#E02C80" transform="translate(646,528)"/>
<path d="M0 0 C6.66434317 0.39095055 11.44689598 3.05203938 17.1875 6.3125 C18.52071289 7.04243164 18.52071289 7.04243164 19.88085938 7.78710938 C24.16860452 10.18064404 27.6129847 12.39633127 31 16 C26.75189501 14.42513218 22.83959762 12.35821483 18.875 10.1875 C12.69937856 6.84430644 6.44883118 3.78868376 0 1 C0 0.67 0 0.34 0 0 Z " fill="#D21E89" transform="translate(577,399)"/>
<path d="M0 0 C0.66 0.33 1.32 0.66 2 1 C3.21510382 5.80150115 3.01414817 10.36370137 2.6875 15.25 C2.65205078 15.96929688 2.61660156 16.68859375 2.58007812 17.4296875 C2.24606643 22.75393357 2.24606643 22.75393357 0 25 C-0.19585353 21.02119772 -0.3802867 17.04194844 -0.5625 13.0625 C-0.61857422 11.92619141 -0.67464844 10.78988281 -0.73242188 9.61914062 C-0.78076172 8.53955078 -0.82910156 7.45996094 -0.87890625 6.34765625 C-0.9260376 5.34742432 -0.97316895 4.34719238 -1.02172852 3.31665039 C-1 1 -1 1 0 0 Z " fill="#E83D79" transform="translate(528,721)"/>
<path d="M0 0 C3.31248187 -0.02888146 6.62493167 -0.04675799 9.9375 -0.0625 C10.88302734 -0.07087891 11.82855469 -0.07925781 12.80273438 -0.08789062 C14.15141602 -0.09272461 14.15141602 -0.09272461 15.52734375 -0.09765625 C16.77632446 -0.10551147 16.77632446 -0.10551147 18.05053711 -0.11352539 C20 0 20 0 21 1 C21.14115161 3.67058851 21.04247107 6.32432238 21 9 C22.32 8.34 23.64 7.68 25 7 C23.68197635 10.64991166 22.40785992 12.7895201 20 16 C19.67 11.38 19.34 6.76 19 2 C12.73 1.67 6.46 1.34 0 1 C0 0.67 0 0.34 0 0 Z " fill="#E21E66" transform="translate(542,690)"/>
<path d="M0 0 C2.75250263 2.75250263 2.96115792 5.73864828 3.625 9.4375 C3.75688721 10.15164063 3.88877441 10.86578125 4.0246582 11.6015625 C5.03616442 17.42867525 5.33822729 23.08728581 5 29 C4.67 29 4.34 29 4 29 C3.86722656 28.04738281 3.73445312 27.09476562 3.59765625 26.11328125 C3.42105469 24.85902344 3.24445312 23.60476563 3.0625 22.3125 C2.88847656 21.07113281 2.71445312 19.82976562 2.53515625 18.55078125 C2.22381977 16.48505236 1.88313466 14.42254771 1.46875 12.375 C0.96324157 9.81375727 0.68004763 7.28622466 0.4375 4.6875 C0.35371094 3.80449219 0.26992188 2.92148437 0.18359375 2.01171875 C0.12300781 1.34785156 0.06242188 0.68398438 0 0 Z " fill="#ED225C" transform="translate(887,258)"/>
<path d="M0 0 C2.97 0.495 2.97 0.495 6 1 C6 1.66 6 2.32 6 3 C8.64 3 11.28 3 14 3 C14 3.66 14 4.32 14 5 C14.99 5 15.98 5 17 5 C17 5.66 17 6.32 17 7 C17.99 7.33 18.98 7.66 20 8 C12.41045469 7.55355616 5.98360263 4.88499438 -1 2 C-0.67 1.34 -0.34 0.68 0 0 Z " fill="#E94575" transform="translate(233,877)"/>
<path d="M0 0 C-5.81727956 5.81727956 -16.46033141 5.05031204 -24.1875 5.0625 C-26.0746875 5.0315625 -26.0746875 5.0315625 -28 5 C-28 4.67 -28 4.34 -28 4 C-24.27206058 3.32634616 -20.54247005 2.66231022 -16.8125 2 C-15.75740234 1.80921875 -14.70230469 1.6184375 -13.61523438 1.421875 C-12.59365234 1.24140625 -11.57207031 1.0609375 -10.51953125 0.875 C-9.11344604 0.62363281 -9.11344604 0.62363281 -7.67895508 0.3671875 C-5.08032281 0.01100934 -2.61893788 -0.06645996 0 0 Z " fill="#DC2880" transform="translate(563,605)"/>
<path d="M0 0 C1.15691156 2.52620301 1.09500514 3.71164269 0.22265625 6.359375 C-0.35162109 7.54273438 -0.35162109 7.54273438 -0.9375 8.75 C-1.31777344 9.54921875 -1.69804688 10.3484375 -2.08984375 11.171875 C-2.39019531 11.77515625 -2.69054687 12.3784375 -3 13 C-3.66 13 -4.32 13 -5 13 C-4.52309796 11.37433394 -4.04340334 9.74948689 -3.5625 8.125 C-3.29566406 7.22007812 -3.02882813 6.31515625 -2.75390625 5.3828125 C-2 3 -2 3 -1 1 C-7.6 1 -14.2 1 -21 1 C-21 0.67 -21 0.34 -21 0 C-18.06281233 -0.19461488 -15.12550068 -0.38097593 -12.1875 -0.5625 C-11.35412109 -0.61857422 -10.52074219 -0.67464844 -9.66210938 -0.73242188 C-8.85966797 -0.78076172 -8.05722656 -0.82910156 -7.23046875 -0.87890625 C-6.49207764 -0.9260376 -5.75368652 -0.97316895 -4.99291992 -1.02172852 C-3 -1 -3 -1 0 0 Z " fill="#EE2F59" transform="translate(782,690)"/>
<path d="M0 0 C14.15880993 -0.56719268 14.15880993 -0.56719268 19 3 C20.875 5.1875 20.875 5.1875 22 7 C21.67 7.66 21.34 8.32 21 9 C20.67 8.401875 20.34 7.80375 20 7.1875 C14.93980856 1.65291562 7.0557823 1.41929854 0 1 C0 0.67 0 0.34 0 0 Z " fill="#DE2679" transform="translate(381,707)"/>
<path d="M0 0 C2.34375046 2.34375046 3.07418745 4.28642197 4.25 7.375 C4.81460938 8.80972656 4.81460938 8.80972656 5.390625 10.2734375 C6 13 6 13 5.109375 15.3515625 C4.74328125 15.89554688 4.3771875 16.43953125 4 17 C1.92157664 11.70946782 0.1722042 6.56796995 -1 1 C-0.67 0.67 -0.34 0.34 0 0 Z " fill="#F1496F" transform="translate(713,735)"/>
<path d="M0 0 C2 3 2 3 2 7 C5.63 7.66 9.26 8.32 13 9 C13.33 9.99 13.66 10.98 14 12 C11.03 11.67 8.06 11.34 5 11 C5 10.34 5 9.68 5 9 C4.38125 8.938125 3.7625 8.87625 3.125 8.8125 C1 8 1 8 -0.3125 5.625 C-1 3 -1 3 0 0 Z " fill="#F34D66" transform="translate(700,802)"/>
<path d="M0 0 C1.43973632 4.31920895 0.65513023 7.79964729 -1 12 C-2.85446857 14.13977143 -4.62333181 15.39833231 -7 17 C-6.24470474 13.13747743 -4.60515228 9.79819633 -2.9375 6.25 C-2.38964844 5.07953125 -1.84179688 3.9090625 -1.27734375 2.703125 C-0.64505859 1.36507812 -0.64505859 1.36507812 0 0 Z " fill="#E9346E" transform="translate(527,748)"/>
<path d="M0 0 C6.27 0 12.54 0 19 0 C19 0.33 19 0.66 19 1 C16.58530156 1.41746652 14.17089547 1.80937492 11.75 2.1875 C10.72712891 2.36829102 10.72712891 2.36829102 9.68359375 2.55273438 C7.671875 2.85546875 7.671875 2.85546875 4 3 C2.68 2.01 1.36 1.02 0 0 Z " fill="#E9306D" transform="translate(475,779)"/>
<path d="M0 0 C0.33 0 0.66 0 1 0 C1.02705729 1.77074917 1.04642195 3.54161711 1.0625 5.3125 C1.07410156 6.29863281 1.08570313 7.28476562 1.09765625 8.30078125 C1 11 1 11 0 14 C-0.66 14 -1.32 14 -2 14 C-2.33 14.99 -2.66 15.98 -3 17 C-2.48517081 11.147205 -1.54642808 5.6702363 0 0 Z " fill="#DF287C" transform="translate(650,510)"/>
<path d="M0 0 C1.5 1.1875 1.5 1.1875 3 3 C3.1875 5.6875 3.1875 5.6875 3 8 C3.66 8 4.32 8 5 8 C5 11.3 5 14.6 5 18 C3.34867934 14.69735868 2.32390048 11.95993358 1.375 8.4375 C1.11460937 7.48746094 0.85421875 6.53742188 0.5859375 5.55859375 C0 3 0 3 0 0 Z " fill="#DB207D" transform="translate(646,460)"/>
<path d="M0 0 C4.14298667 0.59834725 7.18194377 2.00664285 10.8125 4.0625 C11.78832031 4.61035156 12.76414062 5.15820312 13.76953125 5.72265625 C14.50558594 6.14417969 15.24164062 6.56570313 16 7 C14.1875 7.625 14.1875 7.625 12 8 C11.01 7.34 10.02 6.68 9 6 C7.44414283 5.11324203 5.88116351 4.23890164 4.3125 3.375 C3.50425781 2.92898438 2.69601562 2.48296875 1.86328125 2.0234375 C1.24839844 1.68570312 0.63351562 1.34796875 0 1 C0 0.67 0 0.34 0 0 Z " fill="#C91C94" transform="translate(559,303)"/>
<path d="M0 0 C5.44693314 -0.09688221 10.63904667 -0.12862175 16 1 C16.33 1.99 16.66 2.98 17 4 C15.52031676 3.85950482 14.04125484 3.71245174 12.5625 3.5625 C11.73878906 3.48128906 10.91507813 3.40007812 10.06640625 3.31640625 C8 3 8 3 7 2 C4.67182036 1.63239269 2.3381615 1.29758419 0 1 C0 0.67 0 0.34 0 0 Z " fill="#C4219D" transform="translate(519,293)"/>
<path d="M0 0 C6.06892629 -0.25287193 11.16200408 0.30167391 17 2 C17 2.33 17 2.66 17 3 C5.47835991 3.3690205 5.47835991 3.3690205 0 1 C0 0.67 0 0.34 0 0 Z " fill="#DF1872" transform="translate(746,134)"/>
<path d="M0 0 C0.66 0.33 1.32 0.66 2 1 C-0.94802633 4.71232945 -3.95715225 8.36548742 -7 12 C-7.33 11.34 -7.66 10.68 -8 10 C-7.04367001 8.70684939 -6.08486149 7.41553147 -5.125 6.125 C-4.59132813 5.40570313 -4.05765625 4.68640625 -3.5078125 3.9453125 C-2 2 -2 2 0 0 Z " fill="#BA1CA3" transform="translate(469,303)"/>
<path d="M0 0 C0.99 0 1.98 0 3 0 C2.34 4.62 1.68 9.24 1 14 C0.67 14 0.34 14 0 14 C-1.33257403 4.58997722 -1.33257403 4.58997722 0 0 Z " fill="#953DD2" transform="translate(134,263)"/>
<path d="M0 0 C7.48291572 6.15034169 7.48291572 6.15034169 10 10 C7 10 7 10 5.17578125 8.3203125 C4.56089844 7.59585937 3.94601562 6.87140625 3.3125 6.125 C2.68988281 5.40570313 2.06726563 4.68640625 1.42578125 3.9453125 C0 2 0 2 0 0 Z " fill="#BF30AD" transform="translate(397,398)"/>
<path d="M0 0 C1.53202706 0.25195908 3.05257128 0.57596777 4.5625 0.9375 C5.38878906 1.13214844 6.21507812 1.32679688 7.06640625 1.52734375 C8.02353516 1.76130859 8.02353516 1.76130859 9 2 C9 2.66 9 3.32 9 4 C9.66 4.33 10.32 4.66 11 5 C9.5608866 4.71640113 8.12374482 4.42278601 6.6875 4.125 C5.88699219 3.96257812 5.08648437 3.80015625 4.26171875 3.6328125 C2 3 2 3 -1 1 C-0.67 0.67 -0.34 0.34 0 0 Z " fill="#C6279F" transform="translate(497,371)"/>
<path d="M0 0 C3.3 0 6.6 0 10 0 C10.33 0.66 10.66 1.32 11 2 C7.7 2.33 4.4 2.66 1 3 C0.67 2.01 0.34 1.02 0 0 Z " fill="#F3516C" transform="translate(710,793)"/>
<path d="M0 0 C0.33 0.66 0.66 1.32 1 2 C-0.54115394 6.16111563 -2.12614955 9.57874946 -5 13 C-5.66 12.67 -6.32 12.34 -7 12 C-4.69 8.04 -2.38 4.08 0 0 Z " fill="#DE237A" transform="translate(641,541)"/>
<path d="M0 0 C0.33 0 0.66 0 1 0 C1.22226864 1.76913824 1.42733873 3.54044371 1.625 5.3125 C1.74101562 6.29863281 1.85703125 7.28476562 1.9765625 8.30078125 C2 11 2 11 0 14 C-0.66 10.04 -1.32 6.08 -2 2 C-1.34 2 -0.68 2 0 2 C0 1.34 0 0.68 0 0 Z " fill="#B62EB3" transform="translate(378,344)"/>
<path d="M0 0 C0.33 0.66 0.66 1.32 1 2 C-0.09966775 3.29549899 -1.20491801 4.58626071 -2.3125 5.875 C-2.92738281 6.59429687 -3.54226563 7.31359375 -4.17578125 8.0546875 C-6 10 -6 10 -9 12 C-7.55575365 8.76138697 -5.74227753 6.38030837 -3.375 3.75 C-2.74335937 3.04359375 -2.11171875 2.3371875 -1.4609375 1.609375 C-0.97882812 1.07828125 -0.49671875 0.5471875 0 0 Z " fill="#D2218D" transform="translate(624,309)"/>
<path d="M0 0 C6.625 0.75 6.625 0.75 10 3 C9.34 3.66 8.68 4.32 8 5 C7.05125 4.67 6.1025 4.34 5.125 4 C2.22937548 2.89840809 2.22937548 2.89840809 0 3 C0 2.01 0 1.02 0 0 Z " fill="#E3277A" transform="translate(775,140)"/>
<path d="M0 0 C4.83628305 0.99043705 9.47618873 1.95698846 14 4 C10.62700256 5.15006091 8.65146785 4.85199953 5.3125 3.6875 C4.52488281 3.42324219 3.73726563 3.15898437 2.92578125 2.88671875 C1 2 1 2 0 0 Z " fill="#C61A94" transform="translate(470,442)"/>
<path d="M0 0 C0.33 0.99 0.66 1.98 1 3 C-1.31 4.98 -3.62 6.96 -6 9 C-6.66 8.67 -7.32 8.34 -8 8 C-5.36 5.36 -2.72 2.72 0 0 Z " fill="#DC1C75" transform="translate(622,570)"/>
<path d="M0 0 C-0.33 0.99 -0.66 1.98 -1 3 C-3.3431213 2.74438677 -5.67843403 2.40729228 -8 2 C-8.33 1.34 -8.66 0.68 -9 0 C-5.52176885 -1.15941038 -3.54104422 -0.70820884 0 0 Z " fill="#EB4776" transform="translate(263,885)"/>
<path d="M0 0 C0.7425 0.78375 1.485 1.5675 2.25 2.375 C4.54433318 4.56504531 6.12158858 5.82731386 9 7 C6.25 7.25 6.25 7.25 3 7 C0.625 5 0.625 5 -1 3 C-0.67 2.01 -0.34 1.02 0 0 Z " fill="#ED3D6B" transform="translate(634,754)"/>
<path d="M0 0 C0.66 0 1.32 0 2 0 C2.99 2.97 3.98 5.94 5 9 C4.01 9 3.02 9 2 9 C1.34 6.03 0.68 3.06 0 0 Z " fill="#B82CAE" transform="translate(383,373)"/>
<path d="M0 0 C3.55780196 0.60990891 6.6828589 1.5783681 10 3 C9.67 3.99 9.34 4.98 9 6 C5.48994665 4.3619751 2.54456151 2.96865509 0 0 Z " fill="#E31C70" transform="translate(784,143)"/>
<path d="M0 0 C-2.97 1.65 -5.94 3.3 -9 5 C-9.66 4.34 -10.32 3.68 -11 3 C-9.73581754 2.30034557 -8.46334598 1.61565237 -7.1875 0.9375 C-6.47980469 0.55464844 -5.77210938 0.17179688 -5.04296875 -0.22265625 C-3 -1 -3 -1 0 0 Z " fill="#F75055" transform="translate(816,866)"/>
<path d="M0 0 C2.31 0.33 4.62 0.66 7 1 C7 1.66 7 2.32 7 3 C3.37673261 4.2077558 2.35853631 3.54311128 -1 2 C-0.67 1.34 -0.34 0.68 0 0 Z " fill="#EB497E" transform="translate(468,777)"/>
<path d="M0 0 C0 0.99 0 1.98 0 3 C-3.96 4.98 -3.96 4.98 -8 7 C-6.5361389 2.60841671 -4.02168662 2.12052567 0 0 Z " fill="#DE257D" transform="translate(602,587)"/>
<path d="M0 0 C6.625 0.75 6.625 0.75 10 3 C10 3.66 10 4.32 10 5 C6.08788267 3.84414715 3.1254959 2.64465038 0 0 Z " fill="#D32891" transform="translate(577,399)"/>
</svg>
